<?xml version="1.0" encoding="UTF-8"?>
<svg id="Camada_2" data-name="Camada 2" xmlns="http://www.w3.org/2000/svg" viewBox="0 0 8.06 8.06">
  <defs>
    <style>
      .cls-1 {
        fill: #7D5393;
      }
    </style>
  </defs>
  <g id="Camada_1-2" data-name="Camada 1">
    <g>
      <path class="cls-1" d="m4.03,8.06c-1.08,0-2.09-.42-2.85-1.18-.76-.76-1.18-1.77-1.18-2.85S.42,1.94,1.18,1.18c.76-.76,1.77-1.18,2.85-1.18s2.09.42,2.85,1.18c.76.76,1.18,1.77,1.18,2.85s-.42,2.09-1.18,2.85c-.76.76-1.77,1.18-2.85,1.18ZM4.03.26C1.95.26.26,1.95.26,4.03s1.69,3.77,3.77,3.77,3.77-1.69,3.77-3.77S6.11.26,4.03.26Z"/>
      <g>
        <path class="cls-1" d="m3.1,3.22s.03-.03,0-.03-.03.03,0,.03"/>
        <path class="cls-1" d="m2.06,3.73s-.25,2.04,1.73,2.08c0,0,.35-2.2-1.73-2.08"/>
        <path class="cls-1" d="m6,4.1s-2.04-.26-2.09,1.71c0,0,2.2.37,2.09-1.71"/>
        <path class="cls-1" d="m2.61,2.34s-.2,1.68,1.42,1.71c0,0,.29-1.81-1.42-1.71"/>
        <path class="cls-1" d="m5.85,2.65s-1.68-.22-1.72,1.41c0,0,1.81.3,1.72-1.41"/>
        <path class="cls-1" d="m3.38,1.39s-.14,1.14.96,1.16c0,0,.2-1.23-.96-1.16"/>
        <path class="cls-1" d="m5.5,1.59s-1.14-.15-1.17.96c0,0,1.23.21,1.17-.96"/>
        <path class="cls-1" d="m4.19,2.51c-.06.54-.13,1.07-.21,1.6-.08.53-.17,1.06-.27,1.59-.06.3-.11.59-.18.89-.01.06.04.13.1.14.07,0,.12-.04.14-.1.11-.53.21-1.06.3-1.59.09-.53.17-1.06.24-1.6.04-.3.08-.6.11-.9,0-.06-.04-.13-.1-.14-.07,0-.13.04-.14.1"/>
      </g>
      <rect class="cls-1" x="3.89" y=".13" width=".26" height="7.81" transform="translate(-1.61 4.89) rotate(-53.66)"/>
    </g>
  </g>
</svg>