<?xml version="1.0" encoding="UTF-8"?>
<svg id="Camada_2" data-name="Camada 2" xmlns="http://www.w3.org/2000/svg" viewBox="0 0 400 268">
  <defs>
    <style>
      .cls-1 {
        fill: #fff;
      }

      .cls-2 {
        fill: #4a1f60;
      }
    </style>
  </defs>
  <g id="Camada_2-2" data-name="Camada 2">
    <g id="svg2">
      <rect id="rect2927" class="cls-2" width="400" height="268"/>
      <g id="g2913">
        <path id="path2889" class="cls-1" d="m145.62,62.72c11.46.72,22.77,2.06,32.58,6.1-9.19,3.43-16.16,7.49-24.14,11.23l6.31-26.16c5,9.98,10.28,20.58,13.07,30.56-9.09-8.85-18.38-15.41-27.81-21.74h-.01Z"/>
        <path id="path2891" class="cls-1" d="m195.93,60.06l25.85,9.38-20.23,9.51c1.96-8.54,4.14-17.2,6.93-26.15,2.94,11.04,5.96,22.44,8.06,33.06-6.55-9.29-13.68-17.27-20.62-25.8h0Z"/>
        <path id="path2893" class="cls-1" d="m247.18,69.28c7.62,1.29,15.64.96,23.67,0-6.57,5.9-13.25,11.68-20.23,17.17,3.09-8.77,5.97-17.75,8.65-26.94,1.85,9.04,3.71,18.08,5.56,27.13-5.52-4.71-11.66-10.49-17.65-17.36h0Z"/>
        <path id="path2895" class="cls-1" d="m299.06,68.5c6.33-1.87,14.53-6.62,21.64-10-5.91,7.71-11.82,14.98-17.73,21.86,1.97-7.92,4.81-16.16,7.4-24.75,1.98,5.95,3.48,11.44,6.19,16.81-5.83-.33-11.66-1.52-17.49-3.92h-.01Z"/>
        <path id="path2897" class="cls-1" d="m276.87,112.87c10.7-1.9,17.87-5.14,26.48-8.12-7.52,7.7-16.37,18.16-22.58,23.11l9.59-28.03c2.15,7.81,4.73,15.19,7.28,22.59-7.21-1.74-13.98-5.32-20.77-9.55h0Z"/>
        <path id="path2899" class="cls-1" d="m250.78,148.03c9.69,2.38,18.3,4.08,28.51,3.28-6.38,6.14-14.25,10.05-22.26,13.73,2.66-7.85,5.3-15.76,7.56-24.44,3.36,8.83,6.22,19.23,10.1,26.03-9.56-5.67-16.78-12.12-23.9-18.61h-.01Z"/>
        <path id="path2901" class="cls-1" d="m222.81,170.84c8.98,3.81,17.5,7.75,26.95,9.53-6.86,3-13.74,5.98-21.01,8.58,2.04-7.68,3.85-14.88,6.31-22.56,3,9.58,6.32,19.05,10.56,28.22-8.1-6.18-15.89-15.15-22.8-23.77h0Z"/>
        <path id="path2903" class="cls-1" d="m186.09,184.9c9.19,2.66,18.38,6.63,27.57,10.94-7.67,3.2-15.17,6.93-22.42,11.39,3.09-9.52,6.46-19.23,8.49-28.5,2.84,11.02,6.59,22.57,9.31,33.85-5.54-6.62-15.32-19.18-22.96-27.67h0Z"/>
        <path id="path2905" class="cls-1" d="m131.24,192.25c10.55-1.87,20.88-2.34,31.01-1.72-9.76,8.73-17.68,16.22-26.33,24.2,4.03-12.62,8.06-25.25,12.09-37.87,2.53,11.92,4.7,24.54,6.81,37.28-6.13-6.84-15.22-15.09-23.59-21.89h.01Z"/>
        <path id="path2907" class="cls-1" d="m112.03,97.09c11.89-3.58,23.45-3.78,34.92-2.81l-26.17,17.17c2.83-9.03,5.58-18.06,8.8-27.09,4.92,8.81,9.38,17.63,13.06,26.03-8.23-5.94-19.52-9.82-30.62-13.3h.01Z"/>
        <path id="path2909" class="cls-1" d="m89.06,147.87c11.59-5.9,23.33-10.38,34.92-10.47l-28.05,27.33,11.31-37.09c4.23,9.76,8.39,20.49,10.56,30.25-8.9-4.23-18.2-7.85-28.74-10.02Z"/>
        <path id="path2911" class="cls-1" d="m68.75,211c6.47-2.34,17.93-11.26,24.78-13.22,19.18-32.91,96.22-78.4,132.06-82.04,1.01-.1.89.61.04.86-37.59,10.97-100.7,45.35-124.31,82.69-9.08,14.36-12.64,16.4-24.45,29.98,3.75-14.41,7.58-28.84,12.56-43.66,4.56,11.26,7.84,22.96,11.19,34.62-9.33-5.04-20.46-7.95-31.87-9.24h0Z"/>
      </g>
    </g>
  </g>
</svg>