<?xml version="1.0" encoding="UTF-8"?>
<svg id="Camada_2" data-name="Camada 2" xmlns="http://www.w3.org/2000/svg" viewBox="0 0 6.7 6.18">
  <defs>
    <style>
      .cls-1 {
        fill: #491f53;
      }
    </style>
  </defs>
  <g id="Camada_1-2" data-name="Camada 1">
    <g id="uKbMOL">
      <g>
        <path class="cls-1" d="m2.94,5.26c-.28-.57-.57-1.14-.83-1.72-.26-.57-.48-1.16-.73-1.73.17,1.59.81,3,1.67,4.33-.01.01-.02.03-.03.04-.2-.06-.39-.12-.59-.19-1.01-.39-1.81-1-2.21-2.04-.31-.81-.26-1.64-.03-2.46.13-.46.33-.91.5-1.36.04-.09.08-.17.21-.11,1.06.45,1.98,1.06,2.59,2.06.07.11.1.21,0,.33-.62.8-.75,1.7-.54,2.67.01.05.02.1.03.16-.02,0-.03.02-.05.02Z"/>
        <path class="cls-1" d="m5.48,2.54c-.93.97-1.5,2.15-1.9,3.43-.03-.01-.05-.01-.06-.03-.41-.86-.57-1.75-.23-2.68.21-.58.61-1.01,1.11-1.35.56-.38,1.17-.63,1.82-.78.05-.01.17.04.18.08.31.98.42,1.98.02,2.96-.4.99-1.21,1.53-2.18,1.86-.12.04-.24.07-.41.11.45-1.28,1-2.46,1.64-3.61Z"/>
      </g>
    </g>
  </g>
</svg>