<?xml version="1.0" encoding="utf-8"?>
<!-- Generator: Adobe Illustrator 25.4.1, SVG Export Plug-In . SVG Version: 6.00 Build 0)  -->
<svg version="1.0" id="Camada_1" xmlns="http://www.w3.org/2000/svg" xmlns:xlink="http://www.w3.org/1999/xlink" x="0px" y="0px"
	 viewBox="0 0 64.3 30" style="enable-background:new 0 0 64.3 30;" xml:space="preserve">
<g>
	<g fill="#FFF">
		<path d="M24.1,20.9c0,2.3-1.6,4-4,4c-3.4,0-3.8-2.9-3.8-4V8.8H11l0,0H7.8c0-2.8,1.4-3.9,3.9-3.7v-5C5.8-0.6,2.6,3.4,2.5,8.7H0v4.7
			h2.5v15.9h5.3V13.5H11v7.4c0,5.4,3.2,9,8.1,9c2.2,0,4-0.9,5.2-2.4v1.9h5V8.8L24,10.6v10.3H24.1z"/>
		<path d="M41.6,8.3C35.8,8.3,31,13.2,31,19.2S35.8,30,41.6,30c5.1,0,8.8-2.8,10-7H46c-0.9,1.6-2.6,2.4-4.4,2.4
			c-2.5,0-4.5-1.6-5.2-4.1H52C52.8,13,47.7,8.3,41.6,8.3z M36.5,16.9c0.8-2.4,2.7-3.9,5.1-3.9c2.5,0,4.5,1.5,5.2,3.9H36.5z"/>
		<polygon points="53.9,29.4 59.2,29.4 59.2,0 53.9,1.8 		"/>
		<path d="M63,25.7c0,0-0.1-0.1-0.2-0.1c0.2,0,0.3-0.1,0.4-0.2c0.1-0.1,0.1-0.2,0.1-0.3c0-0.1,0-0.2-0.1-0.3
			c-0.1-0.1-0.1-0.1-0.2-0.2c-0.1,0-0.2,0-0.5,0h-0.6v1.8h0.3v-0.8h0.2c0.1,0,0.2,0,0.2,0.1c0.1,0.1,0.2,0.2,0.3,0.4l0.2,0.3h0.3
			l-0.2-0.3C63.2,25.9,63.1,25.8,63,25.7z M62.6,25.4h-0.3v-0.5h0.3c0.1,0,0.2,0,0.3,0S63,25,63,25v0.1c0,0.1,0,0.1-0.1,0.2
			C62.9,25.4,62.8,25.4,62.6,25.4z"/>
		<path d="M64.1,24.7c-0.1-0.3-0.4-0.5-0.6-0.6c-0.3-0.1-0.5-0.2-0.8-0.2s-0.5,0.1-0.8,0.2s-0.5,0.3-0.6,0.6
			c-0.1,0.3-0.2,0.5-0.2,0.8s0.1,0.6,0.2,0.8c0.1,0.3,0.3,0.5,0.6,0.6s0.5,0.2,0.8,0.2s0.6-0.1,0.8-0.2c0.3-0.1,0.5-0.3,0.6-0.6
			c0.1-0.3,0.2-0.5,0.2-0.8C64.4,25.2,64.3,24.9,64.1,24.7z M63.9,26.2c-0.1,0.2-0.3,0.4-0.5,0.5s-0.4,0.2-0.7,0.2
			c-0.2,0-0.5-0.1-0.7-0.2s-0.4-0.3-0.5-0.5s-0.2-0.4-0.2-0.7c0-0.2,0.1-0.5,0.2-0.7c0.1-0.2,0.3-0.4,0.5-0.5s0.4-0.2,0.7-0.2
			c0.2,0,0.5,0.1,0.7,0.2s0.4,0.3,0.5,0.5s0.2,0.4,0.2,0.7C64.1,25.7,64,25.9,63.9,26.2z"/>
	</g>
</g>
</svg>
