<svg xmlns="http://www.w3.org/2000/svg" width="23.574" height="23.569" viewBox="0 0 23.574 23.569">
  <path id="INSTAGRAM" d="M11.785,7.979a6.043,6.043,0,1,0,6.043,6.043A6.033,6.033,0,0,0,11.785,7.979Zm0,9.971a3.929,3.929,0,1,1,3.929-3.929A3.936,3.936,0,0,1,11.785,17.951Zm7.7-10.219a1.409,1.409,0,1,1-1.409-1.409A1.406,1.406,0,0,1,19.484,7.732Zm4,1.431a6.975,6.975,0,0,0-1.9-4.938,7.021,7.021,0,0,0-4.938-1.9c-1.946-.11-7.778-.11-9.724,0a7.011,7.011,0,0,0-4.938,1.9,7,7,0,0,0-1.9,4.938c-.11,1.946-.11,7.778,0,9.724a6.975,6.975,0,0,0,1.9,4.938,7.03,7.03,0,0,0,4.938,1.9c1.946.11,7.778.11,9.724,0a6.975,6.975,0,0,0,4.938-1.9,7.021,7.021,0,0,0,1.9-4.938c.11-1.946.11-7.773,0-9.719ZM20.972,20.97a3.977,3.977,0,0,1-2.24,2.24c-1.551.615-5.233.473-6.947.473s-5.4.137-6.947-.473A3.977,3.977,0,0,1,2.6,20.97c-.615-1.551-.473-5.233-.473-6.947s-.137-5.4.473-6.947a3.977,3.977,0,0,1,2.24-2.24c1.551-.615,5.233-.473,6.947-.473s5.4-.137,6.947.473a3.977,3.977,0,0,1,2.24,2.24c.615,1.551.473,5.233.473,6.947S21.588,19.423,20.972,20.97Z" transform="translate(0.005 -2.238)" fill="#fff"/>
</svg>
