<?xml version="1.0" encoding="UTF-8"?>
<svg id="Camada_2" data-name="Camada 2" xmlns="http://www.w3.org/2000/svg" viewBox="0 0 877.69 407.34">
  <defs>
    <style>
      .cls-1 {
        fill: #baa38e;
      }

      .cls-1, .cls-2, .cls-3, .cls-4, .cls-5, .cls-6, .cls-7 {
        stroke: #4a1f60;
        stroke-linecap: round;
        stroke-linejoin: round;
      }

      .cls-2 {
        fill: #fff;
      }

      .cls-8 {
        isolation: isolate;
      }

      .cls-3 {
        fill: #f4eddf;
      }

      .cls-4 {
        fill: none;
      }

      .cls-5, .cls-9 {
        fill: #4a1f60;
      }

      .cls-10 {
        fill: #471d58;
      }

      .cls-6 {
        fill: #8c7664;
      }

      .cls-11 {
        fill: #ffcb05;
      }

      .cls-7 {
        fill: #e14249;
      }
    </style>
  </defs>
  <g id="Camada_2-2" data-name="Camada 2-2">
    <g id="Layer_1" data-name="Layer 1">
      <g>
        <g class="cls-8">
          <g class="cls-8">
            <path class="cls-10" d="m99.46,360.36c0,14.76-4.52,26.28-13.57,34.56-9.05,8.28-21.08,12.42-36.1,12.42s-26.97-4.14-36.1-12.42c-9.13-8.28-13.7-19.8-13.7-34.56s4.59-25.83,13.76-34.24c9.17-8.4,21.18-12.61,36.03-12.61s26.94,4.16,36.03,12.48c9.09,8.32,13.63,19.78,13.63,34.37Zm-25.34,0c0-7.76-2.2-13.91-6.59-18.43-4.4-4.52-10.3-6.78-17.73-6.78s-13.04,2.35-17.6,7.04c-4.57,4.69-6.85,10.75-6.85,18.18s2.28,13.61,6.85,18.3c4.56,4.69,10.43,7.04,17.6,7.04s13.23-2.35,17.66-7.04c4.44-4.69,6.66-10.79,6.66-18.3Z"/>
          </g>
        </g>
        <g class="cls-8">
          <g class="cls-8">
            <path class="cls-10" d="m117.5,385.19v-49.79h-10.75v-19.84h54.53c10.92,0,19.46,2.99,25.6,8.96,6.14,5.97,9.22,13.27,9.22,21.89,0,5.8-1.28,10.86-3.84,15.17-2.56,4.31-7.08,8-13.57,11.07l9.47,12.54h11.65v19.97h-36.1v-12.93l-11.14-16h-9.86v10.24l9.98.77v17.92h-45.95v-19.97h10.75Zm43.65-49.41h-18.43v21.5h18.69c2.99,0,5.33-1.02,7.04-3.07,1.71-2.05,2.56-4.61,2.56-7.68s-.83-5.63-2.5-7.68c-1.66-2.05-4.12-3.07-7.36-3.07Z"/>
          </g>
        </g>
        <g class="cls-8">
          <g class="cls-8">
            <path class="cls-10" d="m219.4,335.4h-9.73v-19.84h48.13c15.19,0,26.84,4.1,34.94,12.29,8.11,8.19,12.16,18.73,12.16,31.62s-4.03,24.15-12.1,32.77c-8.06,8.62-19.73,12.93-35.01,12.93h-48.13v-19.97h9.73v-49.79Zm25.22,1.15v47.23h13.18c7.51,0,13.06-2.37,16.64-7.1,3.58-4.74,5.38-10.56,5.38-17.47s-1.84-11.99-5.5-16.26c-3.67-4.27-9.17-6.4-16.51-6.4h-13.18Z"/>
          </g>
        </g>
        <g class="cls-8">
          <g class="cls-8">
            <path class="cls-10" d="m373.51,383.78l.51-8.96h19.2v30.34h-80.26v-19.97h9.86v-49.79h-9.86v-19.84h78.59v30.08h-19.2l-.51-8.96h-23.94v13.82h21.5v19.71h-21.5v13.57h25.6Z"/>
            <path class="cls-10" d="m414.08,385.19v-49.79h-10.75v-19.84h54.53c10.92,0,19.46,2.99,25.6,8.96,6.14,5.97,9.22,13.27,9.22,21.89,0,5.8-1.28,10.86-3.84,15.17-2.56,4.31-7.08,8-13.57,11.07l9.47,12.54h11.65v19.97h-36.1v-12.93l-11.14-16h-9.86v10.24l9.98.77v17.92h-45.95v-19.97h10.75Zm43.65-49.41h-18.43v21.5h18.69c2.99,0,5.33-1.02,7.04-3.07,1.71-2.05,2.56-4.61,2.56-7.68s-.83-5.63-2.5-7.68-4.12-3.07-7.36-3.07Z"/>
          </g>
        </g>
        <g class="cls-8">
          <g class="cls-8">
            <path class="cls-10" d="m563.71,315.56l37.89,49.02c-.17-2.99-.3-5.82-.38-8.51-.09-2.69-.15-4.76-.19-6.21-.04-1.45-.11-2.64-.19-3.58v-10.62h-8.7v-20.1h44.67v20.1h-10.37v69.5h-21.63l-37.25-48.26.38,19.46v8.83h8.7v19.97h-45.06v-19.97h10.62v-49.54h-10.62v-20.1h32.13Z"/>
          </g>
        </g>
        <g class="cls-8">
          <g class="cls-8">
            <path class="cls-10" d="m742.27,360.36c0,14.76-4.52,26.28-13.57,34.56-9.05,8.28-21.08,12.42-36.1,12.42s-26.97-4.14-36.1-12.42c-9.13-8.28-13.7-19.8-13.7-34.56s4.59-25.83,13.76-34.24c9.17-8.4,21.18-12.61,36.03-12.61s26.94,4.16,36.03,12.48,13.63,19.78,13.63,34.37Zm-25.34,0c0-7.76-2.2-13.91-6.59-18.43-4.4-4.52-10.3-6.78-17.73-6.78s-13.04,2.35-17.6,7.04c-4.57,4.69-6.85,10.75-6.85,18.18s2.28,13.61,6.85,18.3c4.56,4.69,10.43,7.04,17.6,7.04s13.23-2.35,17.66-7.04c4.44-4.69,6.66-10.79,6.66-18.3Z"/>
            <path class="cls-10" d="m877.69,335.4h-9.47l-25.47,69.76h-20.74l-15.87-42.88-15.23,42.88h-20.48l-25.98-69.76h-9.6v-19.84h46.08v19.84h-8.96l4.22,11.65c1.19,3.76,2.77,10.71,4.74,20.86l16-50.94h18.3l16.64,50.94c1.02-5.46,2.69-12.63,4.99-21.5l3.97-11.01h-9.22v-19.84h46.08v19.84Z"/>
          </g>
        </g>
      </g>
      <g>
        <g>
          <path class="cls-3" d="m643.01,182.21c2.63-.6,5.19-1.99,6.62-4.29,2.05-3.3,1.31-7.61-.1-11.23-2.09-5.37-5.8-10.42-11.14-12.58-5.38-2.18-12.38-.32-16.02,4.26-1.86,2.34-2.95,5.2-4.87,7.53-2.28,2.77-5.03,5.13-7.96,7.19-1.53,1.07-3.15,2.12-4.13,3.71s-1.09,3.9.31,5.13c1.11.98,2.75.99,4.23.95,3.2-.1,6.4-.2,9.59-.3,2.95-.09,6.3-.65,9.22-.26,1.01.13,1.85.63,2.88.72,1.26.12,2.57.04,3.83,0,2.52-.08,5.06-.28,7.53-.83h.01Z"/>
          <g>
            <path class="cls-9" d="m594.5,169.67c-1.45,0-2.96-.05-4.5-.15-8.11-.53-16.16-2.22-23.91-5.03-6.31-2.29-12.33-5.28-17.88-8.9-4.07-2.65-8.94-6.4-10.53-11.92-1.57-5.5,2.21-11.96,6.62-14.8,9.02-5.8,17.13-12.89,24.11-21.07-1.73-.53-3.12-2.27-3.28-4.28-.17-1.93.7-4.01,2.38-5.71,2.25-2.25,5.62-3.59,9.51-3.79.4-.02.79-.03,1.19-.03,1.82,0,3.63.21,5.45.51-1.23-1.23-2.01-3.01-1.99-4.87.02-2.74,1.54-5.51,4.17-7.59,2.23-1.76,4.88-2.82,7.45-3.83,1.56-6.19,6.91-11.19,13.18-12.34.09-8.7,4.38-17.36,11.26-22.69.09-.07.2-.1.31-.1.14,0,.29.06.38.18l.28.34c1.87,2.25,3.75,4.51,5.62,6.76-.53-6.56-.63-13.21-.28-19.77.08-1.5.2-2.94.94-4.19.68-1.18,1.95-1.97,3.15-1.97.3,0,.59.05.87.14,1.35.45,2.08,1.85,2.55,2.77,0,0,3.62,7,5.28,10.22-.52-9.17.71-18.53,3.61-27.23.94-2.82,3.04-6.11,5.88-6.11.4,0,.8.07,1.2.2,2.54.85,3.24,3.97,3.55,6.24l2.23,16.29c.52-8.1,2.99-16.02,7.21-22.94,1.45-2.38,2.95-3.53,4.6-3.53h.25c3.64.25,4.04,5.44,4.07,7.02l.64,29.26c2.18-13.46,8.6-26.19,18.28-35.85.1-.1.23-.15.35-.15s.25.05.35.14c3.17,3.03,2.84,7.87,2.01,12.65l-8.42,48.24c-1.02,5.86-2.08,11.93-4.53,17.56-3.47,7.96-9.66,14.65-15.12,20.55l-.38.41c-3.41,3.7-6.94,7.53-10.27,11.4-.4.45-.78.89-1.15,1.34-6.77,7.95-11.61,14.83-15.24,21.67-1.23,2.31-2.39,4.74-3.52,7.1-3.76,7.86-7.64,16-14.66,21.25-5.81,4.36-13.66,6.57-23.31,6.57l.04.03h0Z"/>
            <path class="cls-9" d="m665.13,1h.21c2.74.19,3.55,3.79,3.61,6.54.28,12.68.56,25.38.83,38.06.36-16.45,7.29-32.68,18.94-44.31,3.1,2.97,2.6,7.96,1.86,12.2-2.81,16.08-5.61,32.15-8.42,48.24-1.03,5.93-2.09,11.93-4.49,17.45-3.39,7.79-9.26,14.18-15.03,20.41-3.59,3.9-7.2,7.81-10.66,11.82-.4.45-.78.89-1.16,1.35-5.77,6.78-11.12,13.89-15.29,21.75-5.29,9.95-9.02,21.43-18.03,28.19-6.49,4.87-14.8,6.47-23.01,6.47-1.5,0-2.99-.05-4.46-.15-8.11-.53-16.14-2.23-23.77-5-6.24-2.26-12.22-5.23-17.77-8.85-4.44-2.9-8.86-6.55-10.32-11.64-1.46-5.11,1.94-11.37,6.41-14.24,9.29-5.98,17.67-13.37,24.78-21.83-1.98-.09-3.57-1.99-3.73-3.98-.17-1.97.84-3.91,2.24-5.32,2.38-2.38,5.82-3.47,9.18-3.64.39-.02.78-.03,1.16-.03,2.7,0,5.4.48,8.06.99-2.42-.65-4.13-3.27-4.1-5.84.02-2.84,1.76-5.44,3.98-7.2,2.23-1.77,4.92-2.82,7.57-3.85,1.46-6.23,6.93-11.31,13.25-12.29-.05-8.73,4.17-17.38,11.07-22.71,2.31,2.78,4.62,5.55,6.92,8.33-.65-7.08-.79-14.2-.42-21.29.07-1.37.18-2.79.87-3.97.56-.97,1.64-1.72,2.72-1.72.24,0,.48.04.71.12,1.1.37,1.74,1.5,2.27,2.53,1.96,3.8,3.93,7.6,5.89,11.41.36.7.35.83.28.83-.04,0-.11-.04-.14-.04-.05,0,0,.12.43.74-1-10.09.15-20.39,3.35-30.01.88-2.66,2.88-5.77,5.41-5.77.34,0,.68.06,1.04.17,2.22.74,2.9,3.5,3.21,5.83,1.15,8.38,2.29,16.76,3.44,25.14-1.25-10.91,1.2-22.23,6.92-31.6.96-1.59,2.35-3.29,4.17-3.29m0-1c-1.84,0-3.48,1.23-5.03,3.77-3.55,5.81-5.86,12.31-6.85,19.04-.56-4.07-1.11-8.13-1.67-12.2-.33-2.4-1.09-5.71-3.89-6.64-.45-.15-.9-.23-1.36-.23-3.11,0-5.37,3.48-6.36,6.45-2.68,8.05-3.95,16.64-3.73,25.15-1.41-2.74-2.83-5.48-4.24-8.21-.52-1-1.3-2.5-2.84-3.02-.33-.11-.67-.17-1.03-.17-1.37,0-2.82.89-3.59,2.22-.79,1.34-.93,2.86-1.01,4.42-.32,6.06-.27,12.19.16,18.27-1.61-1.94-3.22-3.88-4.84-5.82l-.06-.08c-.2-.24-.48-.36-.77-.36-.21,0-.43.07-.61.21-6.9,5.33-11.23,13.95-11.45,22.67-6.2,1.31-11.45,6.26-13.1,12.38-2.54.99-5.12,2.05-7.34,3.81-2.75,2.17-4.34,5.08-4.36,7.98-.02,1.51.46,2.98,1.27,4.18-1.41-.2-2.82-.32-4.24-.32-.41,0-.81.01-1.22.03-4.01.2-7.5,1.6-9.84,3.93-1.79,1.8-2.71,4.03-2.53,6.11.15,1.93,1.36,3.64,2.95,4.43-6.85,7.92-14.77,14.8-23.55,20.45-4.55,2.93-8.46,9.64-6.83,15.36,1.64,5.68,6.6,9.51,10.74,12.21,5.58,3.64,11.63,6.65,17.98,8.95,7.8,2.83,15.89,4.53,24.05,5.06,1.54.1,3.07.15,4.53.15,9.76,0,17.7-2.24,23.61-6.67,7.11-5.33,11.02-13.52,14.81-21.43,1.12-2.35,2.29-4.79,3.51-7.08,3.61-6.8,8.44-13.65,15.17-21.57.38-.46.76-.9,1.15-1.33,3.32-3.85,6.82-7.65,10.2-11.33l.45-.48c5.49-5.93,11.71-12.65,15.21-20.69,2.48-5.69,3.54-11.78,4.56-17.67,2.81-16.09,5.61-32.16,8.42-48.24.85-4.92,1.18-9.9-2.16-13.09-.19-.18-.44-.28-.69-.28s-.51.1-.71.29c-8.67,8.65-14.74,19.74-17.53,31.61l-.17-7.75-.37-16.93c-.1-4.51-1.8-7.32-4.54-7.51h-.28l.02-.02h0Z"/>
          </g>
          <path class="cls-7" d="m651.99,111.41c-.4.45-.78.89-1.16,1.35-5.77,6.78-11.12,13.89-15.29,21.75-5.29,9.95-9.02,21.43-18.03,28.19-7.68,5.75-17.89,6.94-27.47,6.32-8.11-.53-16.14-2.23-23.77-5-.9-4.6-.19-9.58,1.73-13.9,2.88-6.46,8.1-11.59,13.8-15.76l-3.87.71c4.01-4.42,9-7.95,14.5-10.27-3.28.88-6.57,1.76-9.85,2.63,6.87-5.84,15.41-9.7,24.35-10.99-2.18-.09-4.36-.18-6.55-.27,8.47-3.22,17.49-4.99,26.54-5.19-1.75-.41-3.49-.82-5.24-1.24,8.24-5.44,29.42,1.61,30.32,1.68h-.01Z"/>
          <path class="cls-5" d="m574.25,200.57c-3.86.47-7.74.85-11.58,1.26-3.62.39-7.58.39-10.86,2-3.51,1.72-7.54,2.74-11.17,4.26-6.56,2.74-13.12,5.48-19.67,8.22-2.93,1.22-6.1,3.08-9.22,3.6-2.86.48-5.55,1.82-8.22,2.98-12.96,5.63-25.54,12.1-37.98,18.8-3.82,2.06-7.63,4.15-11.44,6.24-3.33,1.83-6.79,2.98-10.03,4.93-7.79,4.7-15.58,9.4-23.37,14.1-7.79,4.7-15.57,9.41-23.35,14.13-3.89,2.36-7.78,4.71-11.67,7.07-3.4,2.06-8.4,4-11.2,6.8,7.21-7.01,14.85-12.93,22.6-19.29,4.26-3.49,8.55-6.93,12.89-10.32,2.1-1.64,4.21-3.27,6.33-4.88,1.68-1.28,3.97-3.82,5.96-4.49-20.24,9.33-35.78,25.34-56.15,33.14,13.07-11.32,27-21.63,41.46-31.1,13.8-9.04,28.08-17.31,42.65-25.03,14.4-7.63,29.29-14.36,42.72-23.72,6.43-4.48,12.36-9.48,18.23-14.65,2.4-2.12,5.24-2.93,8-4.53,3.83-2.23,7.66-4.47,11.49-6.7,12.69-7.4,25.44-14.84,39.16-20.09,8.67-3.32,17.66-5.74,26.75-7.57,12.29-2.48,24.63-4.29,37.07-5.98,2.19-.3,4.39-.52,6.6-.66,1.15-.07,2.29-.13,3.44-.16.66-.02,2.35-.35,2.92-.04-1.15-.64-2.31-1.29-3.46-1.93,3.54.23,7.03,1.26,10.13,2.98-1.02-1.24-2.21-2.34-3.53-3.26,2.51.87,5.02,2,6.87,3.92,1.42,1.47,2.42,3.5,2.41,5.57,0,.86-.17,1.82-.33,2.66-.05.28-1.08,2.7-1.12,2.62-3.08-5.36-12.46-3.37-13.45,2.73.45-2.77-.96-6.76-3.46-8.29-1.71-1.05-4.66-2.37-6.66-2.15-2.36.26-5.52.49-6.6,2.97-.5,1.16-.54,3.03-.66,4.29-.28,2.87-.38,5.75-.61,8.62-.09,1.17.18,2.45-.23,3.54-.48,1.28-1.59,2.42-2.63,3.26-1.43,1.16-3.1,1.98-4.75,2.8,2.01-.06,4.01-.11,6.02-.17-.84.75-1.68,1.5-2.51,2.25,2.83.22,5.65.44,8.48.66,2.41.19,4.75.89,7.15.91-1.54.37-3.2.07-4.75.07,1.8.09-5.1.38-3.29.38-6.56-.19-4.43.4-10.81,1.92-6.14,1.47-10.58,4.98-16.13,7.83-8.78,4.52-18.55,6.32-28.42,7.52l-.02-.02h0Z"/>
          <g>
            <path class="cls-9" d="m640.33,182.24c-1.14,0-2.14-.14-3.05-.42-1.82-.57-3.23-1.75-3.88-3.24-1.03-2.36.03-5.09,1.54-6.75,1.33-1.47,3.37-3.21,5.5-3.21.69,0,1.35.18,1.96.53,2.1,1.22,4.04,3.43,5.76,5.37.43.49.85.97,1.25,1.41.73.79,1.44,1.75,1.19,2.85-.27,1.2-1.5,1.74-2.4,2.05-1.93.66-3.94,1.1-5.97,1.31-.7.07-1.32.11-1.9.11h0Z"/>
            <path class="cls-9" d="m640.44,169.12c.57,0,1.14.14,1.71.47,2.55,1.48,4.91,4.53,6.9,6.69.62.67,1.27,1.51,1.07,2.4-.21.91-1.19,1.39-2.07,1.69-1.9.64-3.87,1.08-5.86,1.28-.61.06-1.23.1-1.85.1-.98,0-1.96-.11-2.9-.4-1.52-.48-2.93-1.5-3.57-2.97-.9-2.06-.06-4.55,1.45-6.21,1.37-1.51,3.24-3.05,5.13-3.05m0-1c-1.86,0-3.83,1.14-5.87,3.38-1.97,2.17-2.61,5.03-1.63,7.29.71,1.63,2.23,2.91,4.19,3.52.96.3,2,.44,3.2.44.6,0,1.23-.04,1.95-.11,2.07-.21,4.11-.66,6.08-1.33.58-.2,2.36-.8,2.73-2.41.34-1.51-.81-2.76-1.31-3.3-.4-.44-.82-.91-1.25-1.4-1.74-1.98-3.71-4.21-5.88-5.47-.69-.4-1.43-.6-2.21-.6h0Z"/>
          </g>
          <ellipse class="cls-4" cx="634.2" cy="159.61" rx="3.27" ry="3.36"/>
          <path class="cls-7" d="m541.67,188.65c-2.28,1.1-4.73,2.05-6.45,3.9-1.72,1.85-2.41,4.98-.73,6.87-19.37,7.51-37.28,18.33-56.26,26.77s-39.79,14.55-60.39,11.81c17.47.26,34.44-6.17,49.64-14.78s29.03-19.43,43.65-28.98c8.34-5.45,16.98-10.49,26.14-14.43,4.65-2,9.45-3.76,14.36-5.01,1.24-.31,4.3-1.28,5.27.21s-1.45,3.26-2.4,4.26c-3.67,3.86-8.04,7.07-12.84,9.38h.01Z"/>
          <g>
            <path class="cls-9" d="m539.59,214.53c-1.54,0-3.16-.2-4.83-.59-3.23-.75-6.28-2.12-9.24-3.44-.18-.08-.29-.25-.3-.45,0-.19.11-.37.28-.46,4.2-2.03,9.13-3.84,15.08-5.54,1.14-.32,2.26-.78,3.35-1.23,1.15-.47,2.35-.96,3.57-1.3,1.59-.43,3.46-.67,5.26-.67.93,0,1.8.06,2.59.19.98.16,1.41.64,1.59,1.01.5,1.01-.14,2.3-.91,3.18-1.18,1.34-2.65,2.55-4.08,3.71-.41.33-.81.66-1.19.98-1.53,1.29-3.6,2.87-6.1,3.76-1.55.55-3.27.83-5.1.83l.03.02h0Z"/>
            <path class="cls-9" d="m552.77,201.37c.88,0,1.73.06,2.51.18.66.11,1.04.38,1.22.74.36.72-.11,1.8-.83,2.62-1.48,1.69-3.5,3.2-5.22,4.64-1.79,1.51-3.72,2.88-5.95,3.67-1.58.56-3.25.8-4.93.8-1.58,0-3.17-.21-4.71-.57-3.17-.74-6.17-2.08-9.15-3.4,4.76-2.3,9.93-4.06,15-5.51,2.37-.68,4.57-1.88,6.91-2.52,1.53-.42,3.37-.66,5.13-.66m0-1h0c-1.85,0-3.77.25-5.39.69-1.25.34-2.46.84-3.63,1.32-1.07.44-2.19.9-3.3,1.21-5.98,1.7-10.94,3.53-15.16,5.57-.35.17-.57.53-.57.92s.24.74.59.9c2.97,1.33,6.05,2.7,9.33,3.47,1.7.4,3.36.6,4.94.6,1.88,0,3.66-.29,5.26-.86,2.58-.91,4.7-2.54,6.25-3.85.38-.32.78-.65,1.19-.98,1.44-1.18,2.93-2.4,4.14-3.77.88-.99,1.59-2.5.98-3.73-.24-.48-.77-1.09-1.96-1.28-.82-.13-1.71-.2-2.67-.2h0Z"/>
          </g>
          <g>
            <path class="cls-9" d="m525.65,192.09c-.39,0-.78-.02-1.17-.07-2.43-.29-4.74-1.71-6.31-3.88-1.4-1.93-2.05-4.22-1.85-6.39-.65.17-1.32.26-2.01.26-4.14,0-8.05-3.08-8.93-6.88-.75.39-1.61.6-2.5.6-1.47,0-2.87-.56-3.83-1.54-1.48-1.51-1.87-3.9-1.07-5.84-.45.09-.91.14-1.37.14-1.46,0-2.88-.46-4-1.29-1.56-1.16-2.54-3-2.67-4.93-.67.44-1.48.68-2.33.68-.92,0-1.79-.29-2.45-.82-.8-.64-1.33-1.64-1.44-2.74-.07-.66.01-1.31.23-1.9-.81.19-1.61.32-2.42.32s-1.55-.14-2.21-.43c-1.12-.49-1.99-1.65-2.18-2.9-.07-.44-.04-.85.06-1.23-.77.18-1.57.31-2.35.31-1.2,0-2.17-.3-2.96-.92-2.06-1.62-1.88-4.87-.41-6.89,1.08-1.49,2.68-2.48,4.22-3.26-.99,0-1.98.16-3.08.36-1.16.21-2.31.42-3.47.42-.6,0-1.14-.06-1.67-.17-1.64-.36-3.53-1.64-3.8-3.62-.14-.98.29-2.02,1.02-2.72-1.25-.6-2.23-1.81-2.5-3.18-.31-1.56.21-3.3,1.33-4.68-1.11.16-2.21.28-3.31.28-1.71,0-3.16-.29-4.43-.88-1.73-.81-3.12-2.55-3.55-4.43-.33-1.45-.05-2.81.79-3.85,1.4-1.73,4.23-2.27,6.25-2.43-2.34-.91-5.31-2.19-7.18-3.32-1.33-.8-2.89-1.94-3.17-3.7-.34-2.15,1.47-4.01,3.42-4.56.62-.18,1.27-.26,2-.26h.02c-.98-.51-1.93-1.13-2.74-1.91-1.65-1.59-2.88-4.28-1.9-6.74.39-.97,1.2-1.78,2.2-2.23-3.39-1.62-6.36-4.15-8.46-7.21-1.36-1.99-1.99-4.65-.34-6.11.87-.77,2.07-.89,3.13-.91h.33c2.35,0,4.69.36,6.92,1.05-7.16-4.3-12.39-11.9-13.48-20.19-.03-.2.07-.39.24-.49.08-.05.17-.07.26-.07.1,0,.21.03.29.09,8.91,6.45,18.62,11.69,28.89,15.61-4.35-4.51-8.7-9.22-12-14.67-2.91-4.8-6.14-12.24-5.06-20.39l.99.13c-.06.56,1.74,2.75,2.42,3.57.34.41.62.75.77.96,1.22,1.73,2.51,3.43,3.83,5.07,2.29,2.86,4.84,5.54,7.3,8.14l1.56,1.65c1.37,1.46,2.62,3.07,3.84,4.63,1.21,1.56,2.47,3.18,3.81,4.59,2,2.1,5.02,3.72,7.98,5.28-1.56-1.72-2.97-3.71-4.2-5.46l-.64-.9c-2.61-3.65-4.82-7.6-6.58-11.75-2.8-6.6-6.63-15.65-1.66-22.77l.82.57c-.26.45.15,2.61,3.57,10.35.26.59.47,1.06.57,1.32,2.6,6.38,6.07,12.52,10.32,18.27,2.35,3.18,4.33,5.64,6.23,7.76,1.77,1.96,4.15,3.47,6.46,4.93.13.08.27.17.4.25-4.12-7.11-6.53-13.29-7.53-19.3-1.37-8.24.15-16.33,4.18-22.21.09-.14.25-.22.41-.22.05,0,.09,0,.14.02.21.06.35.25.36.46.61,15.39,5.17,30.88,12.96,44.25-2.77-6.81-5.12-14.18-4.58-21.78.02-.22.18-.41.39-.45h.11c.18,0,.35.1.44.26l11.09,20.38c1.8,3.31,2.95,5.81,3.96,8.01,1.74,3.79,3.11,6.79,6.86,11.91,10.79,14.76,25.68,26.1,40.09,37.06,11.17,8.5,22.72,17.29,32.4,27.67.14.15.17.37.09.55-.08.18-.26.29-.45.29h-.03c-3.51-.21-7.57-.44-11.43-.44-11.15,0-19.06,1.95-26.44,6.5l-27.61,17.05c-3.34,2.06-6.63,3.91-10.18,3.91h-.02Z"/>
            <path class="cls-9" d="m472.47,35.01c-.92,1.32,3.43,10.53,4.09,12.14,2.66,6.53,6.19,12.72,10.38,18.38,1.96,2.65,4.07,5.36,6.26,7.79,2.38,2.65,5.78,4.44,8.75,6.43-3.94-6.49-7.31-13.47-8.55-20.96-1.25-7.49-.19-15.58,4.1-21.84.7,17.7,6.45,35.16,16.39,49.82-3.8-8.71-7.68-17.86-7.01-27.34,3.7,6.79,7.4,13.58,11.09,20.37,4.85,8.91,4.86,11.79,10.85,19.98,19.18,26.24,50.36,40.99,72.52,64.78-3.95-.24-7.76-.44-11.46-.44-9.42,0-18.16,1.3-26.7,6.58-9.2,5.68-18.4,11.37-27.61,17.05-3.05,1.89-6.39,3.84-9.91,3.84-.37,0-.73-.02-1.1-.07-4.82-.58-8.56-5.74-7.61-10.5-.85.33-1.73.48-2.62.48-4.02,0-8.08-3.12-8.56-7.2-.82.62-1.84.92-2.87.92-1.28,0-2.57-.47-3.47-1.39-1.62-1.65-1.78-4.52-.36-6.35-.77.34-1.61.5-2.44.5-1.32,0-2.64-.41-3.71-1.2-1.74-1.29-2.7-3.54-2.45-5.68-.66.88-1.77,1.34-2.86,1.34-.77,0-1.54-.23-2.14-.71-1.47-1.16-1.71-3.58-.52-5.02-1.11.3-2.29.59-3.42.59-.69,0-1.37-.11-2.01-.39-1.69-.74-2.64-3.27-1.24-4.48-1.1.31-2.3.61-3.43.61-.97,0-1.89-.21-2.65-.81-1.8-1.41-1.66-4.35-.31-6.2,1.34-1.85,3.51-2.89,5.59-3.84-.58-.15-1.18-.21-1.78-.21-1.05,0-2.12.18-3.16.37-1.12.2-2.26.41-3.38.41-.52,0-1.04-.05-1.56-.16-1.62-.35-3.18-1.56-3.41-3.2-.16-1.16.62-2.38,1.65-2.81.19.03.38.05.57.05.27,0,.53-.04.8-.11-.2-.07-.4-.1-.6-.1-.26,0-.52.06-.77.16-1.49-.27-2.83-1.59-3.13-3.12-.39-2,.69-4.09,2.31-5.32-1.57.26-3.19.52-4.78.52-1.46,0-2.89-.21-4.21-.84-2.76-1.3-4.51-5.14-2.59-7.51,1.55-1.91,5.13-2.3,7.39-2.3.5,0,.93.02,1.26.05.4.13.67.21.74.21.04,0,.02-.02-.08-.08.12-.03-.15-.09-.66-.13-1.91-.63-6.94-2.57-9.72-4.24-1.32-.79-2.69-1.84-2.93-3.35-.29-1.81,1.29-3.5,3.06-4,.61-.17,1.24-.24,1.87-.24,1.19,0,2.41.25,3.58.49-2.13-.82-4.31-1.68-5.96-3.26-1.64-1.58-2.63-4.07-1.78-6.19.52-1.29,1.87-2.18,3.22-2.32.76.3,1.55.56,2.34.77-.54-.55-1.26-.79-2-.79-.12,0-.23,0-.35.02-3.83-1.52-7.21-4.19-9.54-7.6-1.13-1.65-1.92-4.13-.42-5.45.74-.66,1.81-.77,2.8-.78h.33c3.78,0,7.56.96,10.88,2.76.27.15.51.2.73.2.43,0,.8-.18,1.3-.18.14,0,.29.01.46.05-10.09-2.88-18.06-12.12-19.43-22.53,9.52,6.89,20.02,12.45,31.07,16.44-4.89-5.05-9.82-10.15-13.46-16.16s-5.92-13.1-4.99-20.07c-.13.99,2.67,4.04,3.28,4.9,1.23,1.74,2.51,3.43,3.84,5.09,2.78,3.47,5.85,6.59,8.89,9.82,2.73,2.9,4.95,6.39,7.65,9.22,3.05,3.2,8.4,5.32,12.18,7.6-3.23-1.95-6.11-6.31-8.27-9.32-2.59-3.63-4.79-7.54-6.52-11.65-2.88-6.8-6.44-15.52-1.71-22.29m0-1h-.07c-.14,0-.27.05-.39.11s-.23.15-.32.26c-.02.02-.03.04-.05.06-5.11,7.34-1.22,16.53,1.62,23.24,1.77,4.18,4,8.16,6.63,11.84.21.29.42.59.64.9.79,1.11,1.65,2.33,2.57,3.51-2.13-1.18-4.14-2.45-5.58-3.96-1.33-1.39-2.52-2.93-3.78-4.55-1.22-1.57-2.48-3.2-3.87-4.67-.52-.56-1.05-1.11-1.57-1.66-2.45-2.59-4.99-5.26-7.27-8.1-1.31-1.64-2.6-3.34-3.81-5.05-.17-.23-.44-.57-.79-.99-.59-.72-2.16-2.63-2.3-3.25v-.07c0-.55-.44-.99-.98-1h-.02c-.09,0-.19,0-.27.04-.14.04-.27.11-.37.2-.12.1-.21.22-.27.37-.04.09-.06.18-.07.28-1.1,8.29,2.18,15.83,5.13,20.7,2.93,4.84,6.67,9.08,10.5,13.12-9.45-3.8-18.4-8.74-26.67-14.72-.17-.13-.38-.19-.59-.19-.18,0-.35.05-.51.14-.34.2-.53.59-.48.99.98,7.5,5.3,14.44,11.36,18.97-1.42-.26-2.86-.39-4.31-.39h-.34c-1.15.02-2.46.16-3.45,1.04-1.88,1.67-1.22,4.6.26,6.77,1.98,2.89,4.71,5.3,7.83,6.96-.72.52-1.3,1.21-1.62,2.01-1.07,2.67.24,5.58,2.01,7.28.47.45.97.84,1.49,1.19-.19.04-.38.08-.57.14-2.15.61-4.16,2.69-3.77,5.12.31,1.97,1.98,3.2,3.4,4.06,1.49.9,3.56,1.84,5.47,2.64-1.76.34-3.57,1.02-4.66,2.36-.94,1.16-1.25,2.67-.89,4.27.46,2.03,1.96,3.9,3.82,4.77,1.33.63,2.85.93,4.64.93.75,0,1.5-.05,2.25-.14-.74,1.29-1.03,2.75-.76,4.13.25,1.31,1.1,2.49,2.21,3.22-.57.77-.87,1.74-.74,2.66.31,2.23,2.33,3.63,4.19,4.04.56.12,1.14.18,1.77.18,1.2,0,2.38-.21,3.52-.42.27-.05.53-.09.78-.14-.89.61-1.72,1.33-2.38,2.24-1.6,2.21-1.78,5.78.51,7.57.87.68,1.97,1.03,3.27,1.03.58,0,1.18-.07,1.76-.17,0,.22,0,.44.04.67.21,1.41,1.21,2.73,2.48,3.29.72.32,1.51.47,2.41.47.58,0,1.16-.07,1.73-.17-.07.42-.09.86-.04,1.29.13,1.24.72,2.36,1.63,3.08.75.6,1.74.93,2.76.93.68,0,1.34-.14,1.93-.4.32,1.79,1.31,3.45,2.78,4.54,1.21.9,2.74,1.39,4.3,1.39.22,0,.43,0,.65-.03-.48,1.94.02,4.13,1.44,5.57,1.06,1.07,2.58,1.69,4.19,1.69.75,0,1.49-.14,2.17-.4,1.16,3.79,5.03,6.68,9.26,6.68.5,0,.99-.04,1.47-.13-.04,2.08.65,4.22,1.98,6.05,1.66,2.29,4.09,3.78,6.66,4.09.4.05.81.07,1.22.07,3.68,0,7.04-1.89,10.44-3.99l27.61-17.05c7.3-4.51,15.13-6.43,26.18-6.43,3.85,0,7.9.23,11.4.44h.06c.39,0,.74-.22.9-.57.17-.37.11-.81-.17-1.11-9.7-10.42-21.27-19.22-32.46-27.73-14.38-10.94-29.24-22.25-39.99-36.96-3.72-5.08-5.08-8.06-6.81-11.83-1.01-2.21-2.16-4.72-3.97-8.04l-9.8-18-1.29-2.37c-.18-.33-.52-.52-.88-.52-.07,0-.14,0-.21.02-.43.09-.75.46-.78.91-.37,5.23.61,10.34,2.14,15.23-5.69-11.74-9.01-24.75-9.52-37.68-.02-.43-.31-.8-.72-.92-.09-.03-.18-.04-.28-.04-.32,0-.64.16-.83.43-4.1,5.98-5.65,14.21-4.26,22.57.93,5.57,3.05,11.28,6.6,17.72-1.85-1.2-3.67-2.47-5.07-4.02-1.9-2.11-3.87-4.56-6.2-7.72-4.22-5.72-7.68-11.83-10.26-18.17-.11-.27-.31-.73-.58-1.33-2.52-5.69-3.72-9.04-3.57-9.94.08-.15.13-.31.13-.49,0-.55-.44-.99-.98-1h-.02l.02.04Z"/>
          </g>
          <g>
            <path class="cls-11" d="m648.38,185.95c-.23,0-.47,0-.71-.03-.16-.02-.31-.11-.39-.26-.08-.14-.08-.32,0-.47,1.99-3.93-.08-5.87-2.69-8.31-.75-.7-1.52-1.42-2.21-2.23-2.71-3.14-1.53-5.64-.28-8.29.4-.85.81-1.73,1.11-2.66,1.09-3.39,4.57-5.85,8.29-5.85,1,0,1.96.18,2.85.55,3.97,1.61,4.35,7.02,4.29,10.94-.08,5.2-2.77,16.61-10.25,16.61h0Z"/>
            <path class="cls-9" d="m651.49,158.35c.9,0,1.81.16,2.67.51,3.77,1.53,4.03,6.98,3.98,10.47-.08,5.31-2.85,16.12-9.75,16.12-.22,0-.44,0-.66-.03,2.78-5.5-1.96-7.6-4.97-11.09-3.33-3.86-.31-6.63.93-10.48,1.04-3.25,4.43-5.5,7.81-5.5m0-1c-3.92,0-7.61,2.6-8.76,6.19-.29.9-.7,1.77-1.09,2.6-1.26,2.68-2.56,5.45.35,8.83.71.82,1.49,1.56,2.25,2.26,2.56,2.39,4.4,4.12,2.58,7.72-.15.29-.14.64.02.93.16.29.45.48.78.51.25.02.51.04.75.04,7.85,0,10.67-11.74,10.75-17.1.06-4.07-.35-9.69-4.6-11.41-.95-.39-1.98-.58-3.04-.58h0Z"/>
          </g>
          <circle class="cls-9" cx="634.46" cy="159.76" r="1.59"/>
        </g>
        <g>
          <path class="cls-6" d="m517.91,220.71s-8.83,14.54-14.07,14.82c-1.72.09-2.35-.75-2.34-2.19.02-2.95,2.77-8.37,4.52-13.2,2.6-7.2,5.21-11.03,5.21-11.03l1.56,2.71,5.12,8.9h0Z"/>
          <path class="cls-6" d="m517.91,220.71s-8.83,14.54-14.07,14.82c-1.72.09-2.35-.75-2.34-2.19.43-.26,2.63-1.8,5.21-7.16,2.65-5.51,5.63-13.2,6.08-14.37l5.12,8.9h0Z"/>
          <path class="cls-1" d="m494.73,323.38l-25.8-24.86s10.54-30.54,17.77-41.57c7.23-11.04,16.07-20.87,18.15-23.1,2.08-2.22,3.55-3.97,3.55-3.97l5.54-15.4s15.13,56.48,15.67,56.88-19.24,46.01-19.24,46.01l-15.64,6.02h0Z"/>
          <path class="cls-2" d="m564.5,329.66l-2.55.28c-2.55.27-60.02-3.95-62.78-4.41-2.75-.47-4.44-2.14-4.44-2.14,0,0,9.54-26.17,9.94-28.72s2.44-16.87,2.44-16.87c.79-4.64,2.52-11.48,3.38-17.68.95-6.82,1.03-13.24,1.96-24.19,1.76-20.9-1.21-26.81-1.21-26.81,0,0,8.87,1.59,13.78,2.99,2.29.65,14.57,2.9,27.02,5.12,1.71.3,3.43.61,5.12.9,12.39,2.2,23.59,4.12,23.59,4.12,0,0,1.56,2.75,2.37,7.05s.29,9.95.03,14.11c-.26,4.17-3.64,23.87-5.22,35.43-1.58,11.56-4.9,28.37-7.23,36.1-2.33,7.74-6.21,14.74-6.21,14.74v-.02h0Z"/>
        </g>
        <g>
          <path class="cls-10" d="m556.61,258.22c-.04.14.16.47.31.5.16.04.37-.17.72-.34-.27-.3-.41-.6-.56-.59-.16,0-.42.25-.47.44"/>
          <path class="cls-10" d="m559.09,258.33c-.06-2.54-3.79-2.1-3.79-2.1,0,0,.08.29-.06.24-.74-.25-2.07.5-2.07.5,0,0,.27.07.62.1-.8-.04-2.63,1.38-2.97,1.62,0,0,.45.05.76,0-.81.09-1.65,1.06-1.81,1.13-.09.04.22.09.48.07-.5.09-1.11.67-1.23.78,0,0,.08.03.27.12-.49.03-.89.52-1.15.66,0,0,.08.05.18.12-.13-.02-1.11.63-1.41.84l.54.08c-5.21,1.48-8.1,6.03-9.55,9.22l14.9-.97c1.74-3.4,1.92-5.84,1.92-5.84.03-.26.34-.63.53-.8.19-.16,1.07-.64,1.25-.78.13-.1,1.05-.18,1.44-.23.91-.05,1.17-.56,1.26-.71.35.65-.14,1.76-.45,2.15,3.71-3.35.58-6,.36-6.2m-1.21,1.73c-.3.2-.67.29-.92.53-.35.35-.62.8-.95,1.24-.54-.28-.92-.7-.96-1.44-.04-.73-.78-1.84-.84-2.58.35-.16,1.39.03,1.76-.11.34-.13.69-.27,1.04-.31.57-.07,1.17.38,1.32.9.11.39-.18,1.57-.46,1.76"/>
          <path class="cls-10" d="m534.47,274.98c.71-.77,1.56-1.19,2.56-1.26.97-.06,1.7.25,2.19.93.46.64.61,1.48.45,2.51s-.58,1.9-1.25,2.6c-.71.75-1.56,1.16-2.53,1.22-.94.06-1.66-.24-2.16-.9-.49-.64-.65-1.45-.5-2.44.17-1.06.58-1.95,1.24-2.67m-.7,2.62c-.13.84,0,1.53.41,2.08.42.56,1.02.82,1.8.77.81-.05,1.51-.4,2.11-1.04.56-.61.91-1.35,1.05-2.22s.01-1.59-.36-2.14c-.41-.58-1.02-.85-1.83-.8-.83.05-1.55.41-2.14,1.07-.55.62-.9,1.37-1.04,2.27m.12,0c.14-.87.47-1.6,1-2.2.57-.63,1.25-.97,2.04-1.02.77-.05,1.35.21,1.74.77.37.53.49,1.21.35,2.06s-.47,1.55-1.01,2.13c-.57.62-1.24.95-2.02,1-.75.05-1.32-.2-1.72-.74-.39-.53-.52-1.19-.39-2m.85,1.63c.28.45.73.65,1.33.61.63-.04,1.16-.32,1.59-.83.4-.48.65-1.07.76-1.77s.04-1.26-.22-1.7c-.28-.47-.73-.69-1.35-.65-.66.04-1.2.33-1.63.85-.38.48-.63,1.1-.74,1.85-.1.67-.02,1.22.25,1.64"/>
          <path class="cls-10" d="m539.3,279.52l.55-.04,2.4-4.9-.27.02.08-.5.97-.06-2.93,5.93-.88.06.08-.5h0Zm-.1.62l-.08.5,2.14-.14.08-.5-2.14.14Zm4.45-.9l.28-.02-.19-.87-2.16.14-.44.91.29-.02-.08.5-1.13.07.96-1.95,3.03-.19.36,1.86-1.01.06.08-.5h0Zm-2.4-1.36l1.91-3.85.32-.02.72,3.69-2.95.19h0Zm4.04,1.26l-1.29-5.78-1.84.12-.08.5,1.5-.1c.37,1.92.74,3.85,1.12,5.79l1-.06.08-.5-.5.03h.01Zm-1.76-1.89l-.33-2.22-1.06,2.31,1.4-.09h-.01Zm.02,2.61l-.08.5,2.13-.14.08-.5-2.13.14Z"/>
          <path class="cls-10" d="m547.35,273.64l.08-.5,2.89-.18-.08.5-2.89.18Zm-.92,5.92l.08-.5.83-.05.75-4.8-.83.05.08-.5,1.39-.09-.9,5.8-1.39.09h-.01Zm2.87-.06l-.08.5-2.89.18.08-.5,2.89-.18Zm-.28-3.49l2.09-1.99-.49.03.08-.5,1.64-.1c-.61.58-1.96,1.88-4.08,3.9l.57-3.68,1.39-.09-.08.5-.83.05-.29,1.87h0Zm1.19,3.31l1.62-.1-2.2-3.03-1.39,1.33-.3,1.94,1.39-.09.08-.5-.83.05.2-1.3.7-.66,1.29,1.81-.46.03-.08.5-.02.02h0Zm3.38-5.96l-1.09.07-2.78,2.66,2.26,3.11,1.12-.07.08-.5-.84.05-1.88-2.64,2.3-2.13.76-.05.08-.5h0Zm-2.88.06l.08-.5,2.9-.19-.08.5-2.9.18h0Zm2.38,5.83l-.08.5-2.9.18.08-.5,2.9-.18Z"/>
          <path class="cls-10" d="m530.9,286.71c.05.22.06.45.02.69-.05.31-.17.62-.36.93-.48.79-1.32,1.23-2.5,1.3l-3.29.21.08-.49,3.71-.24c.39-.02.76-.2,1.12-.54.38-.35.6-.74.66-1.18s-.05-.8-.36-1.11c-.18-.18-.39-.3-.64-.36.3-.11.56-.3.78-.56.22-.27.36-.56.41-.88.06-.4-.02-.72-.25-.99-.22-.27-.52-.39-.9-.36l-3.61.23.08-.49,3.26-.21c.97-.06,1.59.2,1.85.78.13.29.18.6.12.93-.02.15-.07.3-.13.45-.16.39-.4.71-.73.96.35.18.58.48.68.91m-6.04,2.53l1.33-.09.89-5.73-1.33.08-.08.5.82-.05-.74,4.74-.82.05-.08.49h.01Zm2.34-5.82l-.41,2.62,2.16-.14c.35-.02.66-.17.94-.44s.45-.59.51-.95-.02-.67-.22-.91c-.2-.24-.48-.35-.82-.33l-2.16.14h0Zm-.43,2.74l-.47,2.99,2.27-.14c.36-.02.7-.19,1.04-.5.35-.32.55-.69.61-1.09.02-.13.02-.27,0-.4-.05-.29-.21-.54-.46-.73-.25-.2-.53-.29-.83-.27l-2.16.14Zm.93-2.22l.95-.06c.36-.02.6-.03.71-.02.23.03.38.13.45.27.06.14.08.28.06.43-.01.08-.04.17-.08.26-.11.25-.29.42-.54.51-.14.05-.39.09-.74.12l-1.06.07.25-1.58h0Zm-.43,2.75l1.15-.07c.37-.02.65,0,.84.05.23.07.37.23.41.49.02.11.02.21,0,.32-.02.15-.08.3-.18.44-.13.2-.31.34-.54.42-.16.06-.4.1-.72.12l-1.26.08.29-1.86h0Z"/>
          <path class="cls-10" d="m532.39,282.47l5.56-.35-.31,1.97-.47.03.23-1.48-5.09.32.08-.49Zm.37,6.26l.89-5.73-1.36.09-.08.5.82-.05-.74,4.74-.82.05-.08.49,1.36-.09h.01Zm4.41-1.62l-.31,1.97-5.56.36.08-.49,5.09-.32.23-1.47.47-.03v-.02Zm-.47-3.75l-.12.8.47-.03.21-1.36-3.49.22-.42,2.72,3.29-.21.09-.56-2.73.17.25-1.6,2.46-.16h-.01Zm-3.38,2.47l-.45,2.89,3.49-.22.21-1.35-.47.03-.12.79-2.46.16.29-1.83,2.73-.17.08-.5-3.29.21h-.01Z"/>
          <path class="cls-10" d="m543.94,287.53l.85-.05-.08.49-1.23.08c-.35-.75-.57-1.21-.67-1.38-.3-.52-.64-.96-1.02-1.31h.14c.47-.04.89-.19,1.28-.45.44-.3.7-.69.77-1.16.11-.73-.11-1.18-.68-1.36-.18-.05-.38-.08-.6-.08-.19,0-.28,0-.28.01l-3.84.24.08-.49,3.78-.24c.58-.04,1.02,0,1.32.1.31.11.53.33.67.66.14.32.18.68.12,1.07-.08.52-.31.97-.69,1.35-.28.28-.64.49-1.08.64.34.34.73.97,1.16,1.88m-6.27.89l1.37-.09.89-5.73-1.38.09-.08.5.82-.05-.74,4.74-.82.05-.08.49h.02Zm2.84-.06l-.08.49-2.86.18.08-.49,2.86-.18Zm1.45-3.12c.44-.03.83-.16,1.19-.41.42-.28.66-.64.73-1.07.08-.52-.03-.89-.33-1.1-.25-.17-.65-.24-1.2-.21l-2.29.15-.43,2.79,2.34-.15h-.01Zm-.1,2.92l1.5-.1c-.31-.68-.53-1.12-.63-1.31-.31-.55-.68-1.01-1.1-1.37l-2.02.13-.44,2.82,1.37-.09.08-.49-.82.05.28-1.81.76-.05c.2-.01.34-.01.42,0,.1.02.2.06.29.13.17.11.43.52.76,1.22l.16.34-.52.03-.08.49h0Zm-1.33-5.08l1.78-.11c.42-.03.7.04.85.19.15.15.2.35.16.6-.03.17-.1.34-.21.49-.11.14-.25.25-.44.33-.2.09-.48.14-.84.17l-1.58.1.27-1.76h.01Zm4.18,5.02l-.08.49-2.86.18.08-.49,2.86-.18Z"/>
          <path class="cls-10" d="m551.69,287.04l.85-.05-.08.49-1.23.08c-.35-.75-.57-1.21-.66-1.38-.3-.52-.64-.96-1.02-1.31h.14c.47-.04.89-.19,1.28-.45.44-.3.7-.69.77-1.16.11-.73-.11-1.18-.68-1.36-.18-.05-.38-.08-.6-.08-.19,0-.28,0-.28.01l-3.84.24.08-.49,3.78-.24c.58-.04,1.02,0,1.32.1.31.11.53.33.68.66.14.32.18.68.12,1.07-.08.52-.31.97-.69,1.35-.28.28-.64.49-1.08.64.34.34.73.97,1.16,1.88m-6.27.89l1.38-.09.89-5.73-1.38.09-.08.5.82-.05-.74,4.74-.82.05-.08.49h.01Zm2.84-.06l-.08.49-2.86.18.08-.49,2.86-.18Zm1.45-3.12c.44-.03.83-.16,1.19-.41.42-.28.66-.64.73-1.07.08-.52-.03-.89-.33-1.1-.25-.17-.65-.24-1.2-.21l-2.29.15-.43,2.79,2.34-.15h-.01Zm-.1,2.92l1.5-.1c-.31-.68-.53-1.12-.63-1.31-.32-.55-.68-1.01-1.1-1.37l-2.02.13-.44,2.82,1.37-.09.08-.49-.82.05.28-1.81.76-.05c.2-.01.34-.01.42,0,.1.02.2.06.29.13.17.12.43.52.76,1.22l.16.34-.52.03-.08.49h0Zm-1.33-5.08l1.78-.11c.42-.03.7.04.85.19.15.15.2.35.16.6-.03.17-.1.34-.21.49-.11.14-.25.25-.44.33-.2.09-.48.14-.84.17l-1.58.1.27-1.76h.01Zm4.18,5.02l-.08.49-2.86.18.08-.49,2.86-.18Z"/>
          <path class="cls-10" d="m553.16,281.59l.08-.49,2.86-.18-.08.49-2.86.18Zm2.15,3.38l-1.4-2.81-.84.05.08-.5,1.22-.08,1.55,3.13v.02h0l-.38,2.45-1.37.09.08-.49.78-.05.28-1.81h0Zm.69-3.44l-1.49.1,1.49,3.02,2.51-3.28-1.66.11-.08.5.73-.05-1.34,1.76-.81-1.63.57-.04.08-.5h0Zm1.01,5.73l-.08.49-2.86.18.08-.49,2.86-.18Zm2.69-5.97l-.08.5-.72.05-2.39,3.05-.28,1.81.87-.06-.08.49-1.37.09.38-2.45,2.61-3.41,1.06-.07h0Zm-2.84.06l.08-.49,2.86-.18-.08.49-2.86.18Z"/>
          <polygon class="cls-10" points="561.4 270.39 561.47 269.95 527.57 272.16 527.51 272.6 561.4 270.39"/>
          <path class="cls-10" d="m529.15,298.54c-.85,2.23-1.93,5.78-1.91,6.02.42.1,1.03-.76,1.35-1.29,1.32-1.47,4.28-7.79,6.36-12.41l-2.93.19-2.85,7.5h-.02Z"/>
          <polygon class="cls-10" points="558.4 289.63 558.47 289.19 524.59 291.31 524.52 291.75 558.4 289.63"/>
        </g>
        <g>
          <path class="cls-9" d="m536.71,221.41c-.06,0-.12,0-.18-.03-.21-.08-.34-.3-.31-.53.13-1,.27-2.03.14-3.02-.13-1.05-.56-1.91-1.2-2.43-.24-.19-.5-.38-.76-.56-1.17-.83-2.64-1.86-2.17-3.88.55-2.36,3.73-3.64,5.53-4.03.23-.05.58-.12.93-.12.41,0,.78.09,1.08.27,1.09.64,1.08,2.15,1.07,2.65-.04,4.08-1.36,8.15-3.72,11.48-.1.14-.25.21-.41.21h0Z"/>
          <path class="cls-9" d="m538.69,207.3c.29,0,.58.05.83.2.71.42.83,1.38.82,2.21-.04,3.98-1.33,7.95-3.63,11.2.14-1.04.27-2.1.14-3.15-.13-1.05-.56-2.09-1.38-2.76-1.31-1.05-3.24-1.85-2.76-3.94.47-2.03,3.37-3.27,5.15-3.66.27-.06.55-.11.83-.11m0-1c-.4,0-.79.07-1.04.13-1.91.41-5.31,1.81-5.91,4.41-.54,2.35,1.14,3.53,2.37,4.4.25.18.5.36.74.54.73.59.95,1.57,1.02,2.1.12.92-.01,1.93-.14,2.89-.06.46.2.89.63,1.06.12.05.24.07.36.07.32,0,.62-.15.82-.42,2.42-3.41,3.77-7.59,3.81-11.76,0-.57.02-2.29-1.32-3.08-.38-.22-.83-.34-1.33-.34h-.01Z"/>
        </g>
        <g>
          <path class="cls-9" d="m541.09,221.08c-.06,0-.12,0-.18-.03-.21-.08-.34-.3-.31-.53.13-1,.27-2.03.14-3.02-.13-1.05-.56-1.91-1.2-2.43-1.34-1.08-2.43-1.78-3.91-2.51-1.09-.54-1.79-1.23-2.09-2.06-.42-1.18.04-2.3.49-3.38.31-.76.61-1.47.6-2.18,0-.21.13-.4.33-.47.06-.02.12-.03.17-.03.14,0,.28.06.38.18,1.21,1.43,3.11,2.32,5.06,2.38h.13c.44,0,.89-.07,1.33-.13l.17-.03c.33-.05.69-.1,1.03-.1.6,0,1.05.16,1.38.49.43.43.62,1.12.61,2.16-.04,4.08-1.36,8.15-3.72,11.48-.1.14-.25.21-.41.21h0Z"/>
          <path class="cls-9" d="m535.13,204.93c1.34,1.57,3.38,2.49,5.43,2.56h.15c.54,0,1.08-.09,1.58-.16.34-.05.66-.09.95-.09.9,0,1.51.39,1.49,2.15-.04,3.98-1.33,7.95-3.63,11.2.14-1.04.27-2.1.14-3.15-.13-1.05-.56-2.09-1.38-2.76-1.34-1.08-2.47-1.81-4.01-2.57-.78-.39-1.55-.95-1.84-1.78-.63-1.77,1.14-3.53,1.12-5.4m0-1c-.12,0-.23.02-.35.06-.39.15-.65.52-.65.95,0,.61-.27,1.28-.57,1.99-.46,1.11-.98,2.38-.5,3.74.34.96,1.13,1.74,2.34,2.34,1.45.71,2.52,1.4,3.82,2.45.73.59.95,1.57,1.02,2.1.12.92-.01,1.93-.14,2.89-.06.46.2.89.63,1.06.12.05.24.07.36.07.32,0,.62-.15.82-.42,2.42-3.41,3.77-7.59,3.81-11.76.01-1.19-.23-1.99-.76-2.52-.43-.43-.99-.64-1.73-.64-.37,0-.75.05-1.1.1l-.17.03c-.42.06-.85.13-1.26.13h-.11c-1.82-.06-3.58-.88-4.7-2.21-.19-.23-.47-.35-.76-.35h0Z"/>
        </g>
        <path class="cls-5" d="m564.56,198.14c-3.92,1.94-6.48,6.34-6.22,10.71.15,2.46,1.09,4.82,1.19,7.27.09,2.46-1.07,5.29-3.47,5.85.61-2.12.13-4.52-1.24-6.25.3,2.35-1.04,4.82-3.18,5.84,1.1-2.93-.29-6.57-3.05-8.03-1.23-.65-2.72-.94-3.64-2-1.07-1.23-.96-3.16-.18-4.59s2.09-2.48,3.37-3.49c4.09-3.23,8.9-6.65,14.02-5.68"/>
      </g>
    </g>
  </g>
</svg>