<svg xmlns="http://www.w3.org/2000/svg" width="25.918" height="25.918" viewBox="0 0 25.918 25.918">
  <path id="SPOTIFY" d="M12.959.563A12.959,12.959,0,1,0,25.918,13.521,12.963,12.963,0,0,0,12.959.563ZM18.221,19.63a1,1,0,0,1-.559-.188c-3.261-1.965-7.054-2.048-10.8-1.28a3.374,3.374,0,0,1-.622.136.814.814,0,0,1-.826-.826.828.828,0,0,1,.711-.878c4.28-.946,8.653-.862,12.384,1.369a.884.884,0,0,1,.507.862.79.79,0,0,1-.794.8ZM19.627,16.2a1.29,1.29,0,0,1-.643-.219A16.934,16.934,0,0,0,6.516,14.446a2.152,2.152,0,0,1-.622.136,1.015,1.015,0,0,1-1.014-1.014,1.028,1.028,0,0,1,.81-1.082,17.576,17.576,0,0,1,5.11-.711,18.292,18.292,0,0,1,9.249,2.378,1.089,1.089,0,0,1,.59,1.029A1.012,1.012,0,0,1,19.627,16.2Zm1.62-3.982a1.2,1.2,0,0,1-.674-.2C16.852,9.8,10.2,9.263,5.894,10.465a2.482,2.482,0,0,1-.674.136A1.206,1.206,0,0,1,4,9.367a1.235,1.235,0,0,1,.909-1.249,21.9,21.9,0,0,1,6.14-.794,22.069,22.069,0,0,1,10.733,2.5A1.227,1.227,0,0,1,22.459,11a1.211,1.211,0,0,1-1.212,1.218Z" transform="translate(0 -0.563)" fill="#fff"/>
</svg>
