<svg xmlns="http://www.w3.org/2000/svg" width="21.539" height="24.792" viewBox="0 0 21.539 24.792">
  <path id="TIKTOK" d="M13.681.021C15.034,0,16.377.01,17.72,0a6.434,6.434,0,0,0,1.808,4.308,7.285,7.285,0,0,0,4.38,1.849V10.32a11.057,11.057,0,0,1-4.339-1A12.763,12.763,0,0,1,17.9,8.357c-.01,3.016.01,6.033-.021,9.039a7.89,7.89,0,0,1-1.395,4.07,7.7,7.7,0,0,1-6.105,3.316,7.532,7.532,0,0,1-4.215-1.064,7.79,7.79,0,0,1-3.77-5.9c-.021-.516-.031-1.033-.01-1.539A7.777,7.777,0,0,1,11.4,9.38c.021,1.529-.041,3.058-.041,4.587a3.544,3.544,0,0,0-4.525,2.19,4.1,4.1,0,0,0-.145,1.663A3.516,3.516,0,0,0,10.3,20.784a3.47,3.47,0,0,0,2.861-1.663,2.383,2.383,0,0,0,.424-1.095c.1-1.849.062-3.688.072-5.537.01-4.163-.01-8.316.021-12.468Z" transform="translate(-2.369)" fill="#fff"/>
</svg>
