<?xml version="1.0" encoding="UTF-8"?>
<svg id="Camada_2" data-name="Camada 2" xmlns="http://www.w3.org/2000/svg" viewBox="0 0 20.37 20.37">
  <defs>
    <style>
      .cls-1 {
        fill: #4A1F60;
      }
    </style>
  </defs>
  <g id="Camada_1-2" data-name="Camada 1">
    <g>
      <path class="cls-1" d="m10.18,20.37C4.57,20.37,0,15.8,0,10.18S4.57,0,10.18,0s10.18,4.57,10.18,10.18-4.57,10.18-10.18,10.18ZM10.18.54C4.87.54.54,4.87.54,10.18s4.33,9.65,9.65,9.65,9.65-4.33,9.65-9.65S15.5.54,10.18.54Z"/>
      <g>
        <path class="cls-1" d="m11.62,5.09c.24.19.39.44.49.72.33.9.33,1.81-.01,2.72-.04.12-.11.22-.16.34.08.02.14.01.2-.05.37-.38.83-.59,1.36-.6.41-.01.81-.04,1.2-.18.09-.03.18-.08.27-.12.14-.07.28.01.28.17-.02.79-.14,1.56-.52,2.27-.1.19-.25.36-.39.53-.05.06-.08.12-.08.2,0,.22-.03.44-.06.66-.02.13-.12.2-.22.18-.11-.02-.17-.11-.14-.25.06-.33.07-.65-.02-.97-.19-.73-.84-1.31-1.59-1.41-.7-.09-1.28.12-1.75.65-.03.03-.05.08-.06.12-.06.28-.16.53-.32.77-.03.05-.03.09,0,.14.27.43.39.9.35,1.41,0,.04.02.1.05.14.56.62,1.43.81,2.2.49.03-.01.07-.03.1-.04.11-.04.21,0,.24.1.04.09,0,.2-.11.24-.18.07-.37.14-.56.18-.59.12-1.16.01-1.67-.31-.12-.08-.24-.17-.35-.26-.06.13-.11.26-.18.39-.37.66-.93,1.06-1.68,1.19-1.06.18-2.16-.46-2.52-1.47-.06-.17-.09-.35-.13-.53,0-.02-.01-.03-.02-.05,0-.15,0-.31,0-.46,0-.01.01-.02.01-.03.04-.36.16-.69.36-1,.03-.05.02-.08,0-.11-.14-.21-.24-.45-.3-.69-.03-.11-.04-.22-.07-.33,0-.15,0-.31,0-.46,0-.01.02-.03.02-.04.05-.42.21-.8.47-1.14.54-.72,1.52-1.06,2.39-.83.12.03.24.07.36.11,0-.05.02-.09.02-.14.1-.53.34-.98.81-1.26.42-.26.86-.5,1.28-.75.11-.06.21-.13.31-.2.04,0,.09,0,.13,0Zm-3.48,5.16c-1.05,0-1.94.83-1.94,1.95,0,1.07.88,1.94,1.94,1.94,1.07,0,1.95-.88,1.94-1.95,0-1.08-.87-1.94-1.94-1.94Zm1.66.32c.46-.74.37-1.82-.41-2.49-.71-.61-1.83-.59-2.53.03-.75.68-.83,1.74-.37,2.45.95-.98,2.5-.86,3.32,0Zm.29-2.26c.04-.16.08-.31.13-.45.07-.19.15-.38.25-.56.07-.14.25-.15.33-.02.05.07.03.14,0,.21-.2.36-.32.75-.36,1.16-.02.25-.02.5.03.76.02,0,.02,0,.03-.01.25-.2.53-.34.84-.42.03,0,.06-.03.09-.06.19-.19.3-.41.38-.66.23-.71.22-1.43.01-2.14-.06-.21-.15-.4-.3-.59-.46.27-.92.53-1.37.8-.47.28-.67.72-.72,1.25,0,.06.01.09.06.13.22.15.41.34.56.57.01.02.03.03.05.05Zm3.42,1.16c.13.17.27.32.37.49.11.17.18.36.28.55.48-.63.61-1.37.69-2.14-.1.03-.18.06-.27.08-.34.09-.7.13-1.05.13-.29,0-.57.08-.82.23-.07.04-.13.09-.18.13.2.09.39.18.58.27.05.02.07.01.11,0,.18-.08.36-.17.55-.22.12-.04.26-.04.39-.05.11,0,.18.07.19.17,0,.1-.06.18-.17.19-.05,0-.11.01-.16.02-.19.02-.36.07-.52.16Z"/>
        <path class="cls-1" d="m11.41,11.24c0-.11,0-.19.09-.24.08-.05.16-.02.23.03.19.12.39.12.58,0,.08-.05.15-.08.23-.03.09.05.1.13.1.22,0,.22.09.39.29.5.08.04.15.09.14.19,0,.1-.07.14-.14.19-.2.11-.29.28-.29.5,0,.09,0,.17-.09.21-.08.05-.16.02-.23-.02-.2-.12-.39-.12-.59,0-.07.05-.15.07-.23.02-.08-.05-.1-.13-.09-.21,0-.23-.09-.39-.29-.5-.08-.04-.14-.09-.14-.19,0-.1.07-.15.14-.19.19-.11.29-.28.29-.48Zm.11.67c.08.14.17.29.25.44h.5c.09-.15.17-.3.25-.44-.08-.14-.17-.29-.25-.44h-.5c-.09.15-.17.3-.25.44Z"/>
        <path class="cls-1" d="m13.64,12.67c-.1,0-.19-.08-.19-.18,0-.1.09-.2.19-.2.1,0,.18.08.18.18,0,.1-.08.19-.18.2Z"/>
        <path class="cls-1" d="m8.4,12.66c-.06.07-.09.14-.14.17-.2.11-.28.27-.28.49,0,.17-.14.25-.28.17-.19-.12-.38-.12-.57,0-.14.09-.29,0-.28-.16,0-.22-.08-.38-.28-.49-.15-.08-.15-.26,0-.34.19-.1.28-.26.27-.48,0-.17.14-.26.29-.17.19.12.37.12.56,0,.15-.09.29,0,.29.17,0,.22.09.38.28.49.05.03.09.1.14.17Zm-1.41,0c.06.11.12.23.18.34.01.02.05.03.08.03.11,0,.21,0,.32,0,.03,0,.07,0,.08-.03.07-.12.13-.24.18-.35-.06-.11-.12-.23-.18-.34-.01-.02-.04-.04-.07-.04-.11,0-.22,0-.34,0-.02,0-.06.02-.07.04-.06.11-.12.22-.18.33Z"/>
        <path class="cls-1" d="m7.19,8.59c0-.08.04-.14.11-.17.19-.08.28-.22.28-.43,0-.14.15-.21.28-.14.15.08.29.09.45.05.04-.01.08-.04.12-.06.14-.06.28.02.27.17,0,.19.08.32.25.4.08.04.13.09.13.18,0,.09-.06.15-.14.19-.16.08-.26.2-.25.39,0,.16-.14.25-.28.17-.2-.1-.39-.1-.59,0-.14.07-.28-.01-.27-.17,0-.19-.08-.31-.25-.39-.08-.04-.14-.09-.14-.19Zm1.36,0c-.06-.1-.13-.2-.19-.3h-.44c-.06.1-.13.2-.19.3.06.1.13.2.19.3h.44c.07-.1.13-.2.19-.3Z"/>
        <path class="cls-1" d="m11.34,6.69c0,.1-.09.2-.19.19-.1,0-.18-.09-.18-.18,0-.1.09-.19.19-.19.1,0,.18.08.18.18Z"/>
        <path class="cls-1" d="m12.03,11.8c.1,0,.18.09.18.19,0,.1-.09.18-.19.18-.1,0-.18-.09-.17-.2,0-.1.09-.17.19-.17Z"/>
        <path class="cls-1" d="m7.41,12.47c.1,0,.18.08.18.18,0,.1-.09.19-.19.19-.1,0-.18-.09-.18-.19,0-.1.09-.18.19-.17Z"/>
        <path class="cls-1" d="m7.96,8.59c0-.1.08-.18.18-.19.1,0,.19.09.19.19,0,.1-.09.19-.19.18-.1,0-.18-.08-.18-.18Z"/>
      </g>
    </g>
  </g>
</svg>