<?xml version="1.0" encoding="UTF-8"?>
<svg id="Camada_2" data-name="Camada 2" xmlns="http://www.w3.org/2000/svg" viewBox="0 0 20.37 20.37">
  <defs>
    <style>
      .cls-1 {
        fill: #4A1F60;
      }
    </style>
  </defs>
  <g id="Camada_1-2" data-name="Camada 1">
    <g>
      <path class="cls-1" d="m10.18,20.37C4.57,20.37,0,15.8,0,10.18S4.57,0,10.18,0s10.18,4.57,10.18,10.18-4.57,10.18-10.18,10.18ZM10.18.54C4.87.54.54,4.87.54,10.18s4.33,9.65,9.65,9.65,9.65-4.33,9.65-9.65S15.5.54,10.18.54Z"/>
      <path class="cls-1" d="m16.15,7.02c-.06.06-.12.13-.19.19-.66.51-1.05,1.18-1.22,2-.08.38-.14.77-.28,1.12-.31.79-.91,1.26-1.74,1.42-.86.16-1.62-.06-2.29-.61-.02-.02-.04-.03-.09-.07-.1.29-.19.57-.28.85-.05.17-.09.35-.12.53-.01.06,0,.14.03.19.22.35.41.72.54,1.12.02.05.03.1.05.16-.16.04-.31.08-.47.12-.23-.7-.61-1.31-1.09-1.86-.25.28-.54.49-.88.62-.82.31-1.75.11-2.28-.63-.19-.27-.29-.58-.37-.9-.12-.45-.3-.86-.63-1.19-.14-.14-.3-.26-.46-.37-.09-.07-.18-.14-.17-.27.01-.13.1-.19.22-.23.83-.34,1.69-.48,2.58-.43.59.04,1.16.17,1.64.55.61.48.86,1.13.76,1.9-.02.14-.06.29-.11.43-.02.07-.02.11.03.16.06.06.11.13.18.2.04-.14.06-.26.1-.37.11-.3.22-.6.33-.9.03-.07.03-.12-.01-.18-.55-.9-.47-2.1.19-2.94.31-.39.71-.67,1.17-.87.55-.24,1.14-.35,1.74-.4.99-.07,1.95.04,2.89.33.08.03.14.1.22.16v.16Zm-.79.02c-.74-.17-1.49-.25-2.25-.19-.6.04-1.18.15-1.72.41-.67.32-1.13.82-1.27,1.57-.08.44-.05.87.15,1.3.77-1.35,1.84-2.28,3.38-2.62.04.16.07.32.1.48-1.5.34-2.49,1.29-3.18,2.63.13.1.24.22.38.31.53.36,1.12.48,1.74.34.59-.13,1.04-.45,1.28-1.01.13-.31.2-.65.27-.98.12-.58.29-1.13.63-1.61.15-.21.33-.4.49-.61Zm-6.69,4.77c-.73-.7-1.57-1.2-2.51-1.55.06-.16.11-.3.17-.46.96.36,1.81.86,2.56,1.54.1-.28.07-.73-.06-1.03-.23-.52-.66-.8-1.19-.94-.9-.23-1.77-.11-2.66.16.03.04.07.06.1.09.29.26.51.56.65.92.11.28.2.57.29.86.07.23.17.45.35.62.35.36.78.46,1.26.39.42-.06.77-.26,1.04-.6Z"/>
    </g>
  </g>
</svg>