<?xml version="1.0" encoding="UTF-8"?>
<svg id="Camada_2" data-name="Camada 2" xmlns="http://www.w3.org/2000/svg" viewBox="0 0 20.37 20.37">
  <defs>
    <style>
      .cls-1 {
        fill: #4A1F60;
      }
    </style>
  </defs>
  <g id="Camada_1-2" data-name="Camada 1">
    <g>
      <path class="cls-1" d="m10.18,20.37C4.57,20.37,0,15.8,0,10.18S4.57,0,10.18,0s10.18,4.57,10.18,10.18-4.57,10.18-10.18,10.18ZM10.18.54C4.87.54.54,4.87.54,10.18s4.33,9.65,9.65,9.65,9.65-4.33,9.65-9.65S15.5.54,10.18.54Z"/>
      <g>
        <path class="cls-1" d="m16.37,11.11c-.02.09-.03.18-.06.27-.25,1.05-1.02,1.77-2.09,1.95-.11.02-.22.03-.34.03-2.19,0-4.39,0-6.58,0-.49,0-.95-.08-1.38-.31-.85-.46-1.37-1.16-1.49-2.12-.17-1.29.5-2.44,1.69-2.97.33-.14.67-.22,1.03-.22.08,0,.12-.02.15-.09.57-1.04,1.44-1.72,2.6-1.95,1.47-.3,2.73.14,3.74,1.25.35.39.6.84.76,1.34.02.07.06.1.12.12,1,.31,1.6.99,1.82,2.01.01.05.02.1.03.14v.54Zm-5.86,1.52c1.12,0,2.24,0,3.35,0,.11,0,.22-.01.32-.03.94-.18,1.53-1.04,1.44-1.93-.08-.76-.68-1.44-1.43-1.56-.25-.04-.38-.17-.45-.41-.39-1.5-1.85-2.5-3.38-2.31-1.15.14-1.99.75-2.5,1.8-.14.28-.23.33-.54.32-.21,0-.42,0-.62.05-1.43.35-2.04,2.06-1.16,3.24.42.56.98.84,1.68.84,1.1,0,2.2,0,3.3,0Z"/>
        <path class="cls-1" d="m9.87,10.23c0-.25-.02-.51,0-.76.05-.46.37-.76.83-.79.29-.02.58,0,.83.16.22.15.36.36.36.62.02.51.02,1.02,0,1.53-.02.42-.38.75-.83.77-.19,0-.38,0-.57-.04-.4-.09-.63-.4-.65-.87,0-.21,0-.42,0-.63,0,0,0,0,.01,0Zm1.39,0c0-.2,0-.4,0-.6,0-.24-.12-.36-.34-.38-.24-.01-.38.09-.39.33-.02.43-.02.86,0,1.28,0,.23.16.35.38.34.22-.01.35-.14.35-.38,0-.2,0-.4,0-.6Z"/>
        <path class="cls-1" d="m7.49,10.22c0-.2,0-.4,0-.6.01-.59.36-.93.94-.95.34-.01.66.05.91.3.18.18.23.41.2.66,0,.02-.01.04-.02.05-.05.11-.21.16-.4.13-.16-.03-.22-.08-.23-.23-.02-.22-.12-.32-.35-.33-.22,0-.34.09-.38.31,0,.04-.01.08-.01.12,0,.37,0,.73,0,1.1,0,.33.19.47.49.41.15-.03.23-.12.25-.32.01-.1.02-.2.14-.25.15-.05.29-.06.43.02.05.03.08.11.09.17.05.35-.12.67-.44.83-.33.16-.68.18-1.03.07-.4-.13-.56-.44-.58-.84,0-.21,0-.43,0-.64,0,0,0,0,0,0Z"/>
        <path class="cls-1" d="m12.65,10.03c.19,0,.37,0,.56,0,.13,0,.19.06.2.18,0,.12-.07.19-.19.19-.26,0-.51,0-.77,0-.24,0-.24-.09-.25-.25,0-.19.06-.32.2-.43.14-.1.28-.2.41-.31.04-.03.09-.07.12-.11.03-.05.06-.13.03-.17-.03-.04-.11-.08-.17-.07-.05,0-.1.06-.14.1-.04.04-.05.13-.09.15-.08.03-.18.04-.25,0-.05-.03-.09-.14-.08-.21.01-.21.15-.34.34-.4.17-.06.34-.05.51.01.35.13.44.53.17.79-.13.13-.3.22-.45.33-.06.04-.12.09-.18.14,0,.01.01.03.02.04Z"/>
      </g>
    </g>
  </g>
</svg>