<?xml version="1.0" encoding="UTF-8"?>
<svg id="Camada_2" data-name="Camada 2" xmlns="http://www.w3.org/2000/svg" viewBox="0 0 20.37 20.37">
  <defs>
    <style>
      .cls-1 {
        fill: #4A1F60;
      }
    </style>
  </defs>
  <g id="Camada_1-2" data-name="Camada 1">
    <g>
      <path class="cls-1" d="m10.18,20.37C4.57,20.37,0,15.8,0,10.18S4.57,0,10.18,0s10.18,4.57,10.18,10.18-4.57,10.18-10.18,10.18ZM10.18.54C4.87.54.54,4.87.54,10.18s4.33,9.65,9.65,9.65,9.65-4.33,9.65-9.65S15.5.54,10.18.54Z"/>
      <g>
        <path class="cls-1" d="m8.35,7.82c-.33,0-.61.28-.61.61s.28.61.61.61.61-.28.61-.61-.28-.61-.61-.61h0Z"/>
        <path class="cls-1" d="m12.02,7.82c-.33,0-.61.28-.61.61s.28.61.61.61.61-.28.61-.61-.28-.61-.61-.61"/>
        <path class="cls-1" d="m10.18,4.28c-3.2,0-5.79,2.6-5.79,5.79s2.6,5.79,5.79,5.79,5.79-2.6,5.79-5.79-2.6-5.79-5.79-5.79m0,.71c2.81,0,5.08,2.27,5.08,5.08s-2.27,5.08-5.08,5.08-5.08-2.27-5.08-5.08,2.27-5.08,5.08-5.08Z"/>
        <path class="cls-1" d="m12.96,11.92c.2-.3-.02-.59-.29-.58-.12,0-.23.09-.3.19-.49.74-1.34,1.11-2.19,1.11s-1.7-.37-2.19-1.11c-.07-.1-.17-.18-.3-.19-.27-.01-.48.27-.29.58.63.96,1.7,1.43,2.77,1.43s2.14-.47,2.77-1.43h0Z"/>
      </g>
    </g>
  </g>
</svg>