<?xml version="1.0" encoding="UTF-8"?>
<svg id="Camada_2" data-name="Camada 2" xmlns="http://www.w3.org/2000/svg" viewBox="0 0 20.37 20.37">
  <defs>
    <style>
      .cls-1 {
        fill: #4A1F60;
      }
    </style>
  </defs>
  <g id="Camada_1-2" data-name="Camada 1">
    <g>
      <path class="cls-1" d="m10.18,20.37C4.57,20.37,0,15.8,0,10.18S4.57,0,10.18,0s10.18,4.57,10.18,10.18-4.57,10.18-10.18,10.18ZM10.18.54C4.87.54.54,4.87.54,10.18s4.33,9.65,9.65,9.65,9.65-4.33,9.65-9.65S15.5.54,10.18.54Z"/>
      <path class="cls-1" d="m4.65,9.11c.12-.26.25-.32.55-.25.65.15,1.26.4,1.85.73.04.02.08.04.14.08-.12-.55-.22-1.09-.35-1.61-.13-.55-.28-1.09-.42-1.64-.08-.3.11-.54.39-.49.08.01.16.07.22.12.76.6,1.42,1.28,2.03,2.03.04.06.09.11.15.18.05-.26.1-.49.14-.73.17-.88.33-1.76.5-2.65.04-.19.18-.32.36-.32.18,0,.32.12.35.32.2,1.05.4,2.1.6,3.15.01.07.03.14.05.23.11-.13.2-.25.3-.36.57-.69,1.21-1.33,1.91-1.88.21-.17.48-.12.57.12.03.08.03.19,0,.27-.28,1.01-.52,2.03-.71,3.06,0,.04-.01.08-.02.13.23-.11.45-.23.68-.33.41-.19.84-.33,1.29-.42.19-.04.34.02.42.17.08.14.04.29-.08.44-.25.29-.5.58-.72.88-.47.64-.8,1.35-1.08,2.09-.19.51-.41,1.02-.63,1.52-.15.34-.36.65-.67.88-.35.27-.74.33-1.16.24-.44-.09-.81-.28-1.05-.69-.02-.03-.03-.06-.05-.1-.01-.03-.03-.06-.04-.07-.1.14-.19.29-.3.42-.25.27-.58.4-.94.45-.61.1-1.08-.14-1.44-.62-.32-.43-.5-.92-.7-1.4-.23-.57-.44-1.14-.7-1.69-.31-.67-.74-1.26-1.24-1.81-.08-.09-.15-.19-.22-.28,0-.06,0-.12,0-.17Zm9.62.81s-.05.01-.06.02c-.64.29-1.22.67-1.75,1.14-.49.44-.91.94-1.26,1.5-.17.27-.36.54-.39.88-.04.41.04.71.44.86.4.15.68.14.97-.19.08-.09.16-.19.21-.3.21-.47.43-.93.61-1.41.33-.85.68-1.69,1.21-2.43,0-.01.01-.03.03-.06Zm-8.15,0l-.02.03c.08.12.15.23.23.35.41.63.7,1.32.96,2.02.2.52.37,1.05.66,1.53.28.47.54.67,1.1.5.23-.07.42-.2.48-.45.07-.29.05-.58-.09-.84-.61-1.14-1.46-2.06-2.57-2.74-.24-.15-.5-.27-.75-.4Zm6.91-2.58s-.04.03-.06.05c-.83.82-1.56,1.73-2.12,2.75-.37.66-.67,1.36-.84,2.1-.06.26.02.46.17.66.02-.04.04-.06.06-.09.55-1,1.26-1.87,2.15-2.59.04-.03.07-.09.08-.14.1-.52.2-1.04.3-1.56.08-.39.17-.77.26-1.16Zm-3.63,4.33c.14-.35.27-.7.4-1.05.01-.04,0-.09-.02-.13-.59-1.16-1.37-2.18-2.3-3.1-.02-.02-.04-.03-.07-.06,0,.03,0,.04,0,.05.18.9.37,1.79.55,2.69.02.11.06.19.15.26.43.35.81.74,1.16,1.17.04.06.09.11.13.16Zm.82-4.8s-.01,0-.02,0c0,.03,0,.06-.02.08-.13.69-.26,1.37-.38,2.06,0,.03,0,.07,0,.1.13.22.26.43.4.66.01-.02.02-.03.03-.04.12-.2.24-.39.35-.59.02-.04.02-.1.02-.15-.09-.52-.19-1.04-.29-1.57-.03-.19-.07-.37-.11-.56Z"/>
    </g>
  </g>
</svg>