<?xml version="1.0" encoding="UTF-8"?>
<svg id="Camada_2" data-name="Camada 2" xmlns="http://www.w3.org/2000/svg" viewBox="0 0 20.37 20.37">
  <defs>
    <style>
      .cls-1 {
        fill: #4A1F60;
      }
    </style>
  </defs>
  <g id="Camada_1-2" data-name="Camada 1">
    <g>
      <path class="cls-1" d="m10.18,20.37C4.57,20.37,0,15.8,0,10.18S4.57,0,10.18,0s10.18,4.57,10.18,10.18-4.57,10.18-10.18,10.18ZM10.18.54C4.87.54.54,4.87.54,10.18s4.33,9.65,9.65,9.65,9.65-4.33,9.65-9.65S15.5.54,10.18.54Z"/>
      <g>
        <path class="cls-1" d="m7.66,8.03l1.47-2.51h0l.78,1.33-1.08,1.85-1.17-.67Zm3.74.57l-.17-.03.14-.08-.22-.38-1.51-2.58h1.55l1.12,1.92.22.39.15-.08-.05.16-.3.89-.93-.19Zm-2.53-3.53l-1.82,3.12,1.94,1.11,1.17-2.01.6,1.03-.77.44,2.64.54.42-1.27.42-1.27-.78.44-1.25-2.14h-2.59s0,0,0,0Z"/>
        <path class="cls-1" d="m11.21,14l-.63-.7.63-.7.11-.13v.16h3.46l-.78,1.33h-2.68v.17l-.11-.13Zm1.2-3.66l1.16-.67,1.47,2.51h0s-1.55,0-1.55,0l-1.08-1.85Zm-.61-.16l1.17,2.01h-1.2v-.88l-1.79,2,1.79,2v-.89h2.49l1.29-2.22-1.82-3.12-1.94,1.11Z"/>
        <path class="cls-1" d="m7.13,12.62h2.16v1.33h-2.93l.78-1.33Zm-1.81-.44l1.12-1.92.22-.39-.14-.08.17-.03.93-.19.3.89.05.16-.14-.08-.22.38-1.51,2.58-.78-1.33Zm-.05-2.58l.78.44-1.25,2.14h0s1.29,2.22,1.29,2.22h3.64v-2.22h-2.34l.6-1.03.77.44-.42-1.27-.42-1.27-2.64.54Z"/>
      </g>
    </g>
  </g>
</svg>