<?xml version="1.0" encoding="UTF-8"?>
<svg id="Camada_2" data-name="Camada 2" xmlns="http://www.w3.org/2000/svg" viewBox="0 0 20.37 20.37">
  <defs>
    <style>
      .cls-1 {
        fill: #4A1F60;
      }
    </style>
  </defs>
  <g id="Camada_1-2" data-name="Camada 1">
    <g>
      <path class="cls-1" d="m10.18,20.37C4.57,20.37,0,15.8,0,10.18S4.57,0,10.18,0s10.18,4.57,10.18,10.18-4.57,10.18-10.18,10.18ZM10.18.54C4.87.54.54,4.87.54,10.18s4.33,9.65,9.65,9.65,9.65-4.33,9.65-9.65S15.5.54,10.18.54Z"/>
      <path class="cls-1" d="m7.98,8.28c-.44.46-.68,1.06-.68,1.68v4.99c0,.19.08.37.22.5s.33.21.54.21h4.25c.2,0,.39-.07.54-.21.14-.13.22-.31.22-.5v-4.99c0-.62-.24-1.22-.68-1.68-.36-.38-.56-.87-.56-1.37v-.21h.03c.13,0,.26-.05.36-.14.1-.09.15-.21.15-.33v-1.03c0-.13-.05-.25-.15-.33-.09-.09-.22-.14-.36-.14h-3.34c-.13,0-.26.05-.36.14-.1.09-.15.21-.15.33v1.03c0,.13.05.25.15.33.1.09.22.14.36.14h.03v.21c0,.51-.2,1-.56,1.37h0Zm4.57,5.34h-2.53v-3.08h2.53v3.08Zm-4.04-8.44h3.34v1.03h-3.34v-1.03Zm2.81,1.5v.21c0,.62.24,1.22.68,1.68.36.37.56.86.56,1.36v.12h-2.78c-.14,0-.25.11-.25.24v3.55c0,.06.03.12.07.17.05.04.11.07.18.07h2.78v.84c0,.06-.03.12-.07.17-.05.04-.11.07-.18.07h-4.25c-.14,0-.25-.11-.25-.24v-4.98c0-.5.2-.99.56-1.36.44-.47.69-1.07.68-1.69v-.21h2.27Z"/>
      <rect class="cls-1" x="9.91" y=".38" width=".54" height="19.83" transform="translate(-4.3 10.22) rotate(-45)"/>
    </g>
  </g>
</svg>