<?xml version="1.0" encoding="UTF-8"?>
<svg id="Camada_2" data-name="Camada 2" xmlns="http://www.w3.org/2000/svg" viewBox="0 0 20.37 20.37">
  <defs>
    <style>
      .cls-1 {
        fill: #4A1F60;
      }
    </style>
  </defs>
  <g id="Camada_1-2" data-name="Camada 1">
    <g>
      <path class="cls-1" d="m13.2,4.71l.18.4s0,.03,0,.04c.16.51.18,1.03.17,1.56-.02.74-.15,1.48-.31,2.2-.05.23-.11.46-.16.68.13.04.26.06.38.11.19.08.22.18.16.37-.22.68-.43,1.37-.66,2.05-.21.65-.42,1.31-.65,1.95-.16.44-.4.85-.74,1.19-.12.11-.25.21-.38.32l-.38.17c-.14.03-.28.07-.42.09-.48.07-.95,0-1.41-.14-.72-.2-1.41-.47-2.02-.91-.31-.23-.57-.5-.75-.85-.23-.47-.25-.96-.16-1.46.11-.62.35-1.19.6-1.77.4-.93.8-1.86,1.2-2.79.08-.19.17-.24.36-.17.12.04.23.11.35.16.02-.03.04-.07.06-.11.19-.36.38-.72.58-1.07.36-.62.76-1.21,1.25-1.73.37-.39.76-.73,1.29-.89.42-.12.81-.07,1.14.23.12.1.21.24.31.36Zm-4.91,10.35c.14-.52.29-1.01.41-1.51.26-1.1.38-2.21.28-3.34-.05-.58-.16-1.15-.45-1.67-.08-.15-.18-.28-.34-.36-.15.35-.28.69-.43,1.02-.34.8-.7,1.59-1.03,2.38-.15.36-.26.74-.31,1.13-.06.46,0,.9.29,1.28.14.19.31.35.52.49,0-.03.01-.05.02-.07.04-.32.09-.64.12-.96.02-.17.09-.26.22-.25.13.01.19.11.19.28,0,.07,0,.15-.02.22-.05.34-.1.67-.15,1.03.21.1.43.2.68.32Zm.97.31c.13-.22.25-.43.39-.64.1-.16.21-.3.33-.45.09-.12.24-.12.33,0,.06.07.04.17-.03.27-.18.27-.36.55-.54.82-.01.02-.02.04-.03.07.1,0,.18.02.27.02.35,0,.68-.03.98-.22.32-.19.55-.47.73-.78.26-.45.43-.94.59-1.43.31-.98.61-1.96.92-2.95,0-.01,0-.03,0-.06-.07,0-.14,0-.2,0-.37.05-.69.23-.99.44-.58.4-1.06.9-1.5,1.45-.68.86-1.22,1.8-1.65,2.8-.07.15-.13.31-.19.47.21.06.41.12.6.17Zm.41-5.46c.43.16.85.32,1.28.48.09-.27.19-.55.28-.81-.42-.16-.83-.31-1.24-.46-.1.26-.21.53-.32.8Zm.82-2.01c-.11.27-.23.54-.33.79.41.15.81.3,1.21.45.08-.27.17-.54.26-.82-.38-.14-.75-.28-1.14-.42Zm-1.08,3.31c.28.1.55.2.82.3.03,0,.08,0,.1-.03.09-.1.17-.21.27-.3.12-.11.16-.25.2-.39-.43-.16-.86-.32-1.28-.48-.19.28-.07.6-.11.9Zm1.25-3.7c.37.14.73.27,1.09.41.08-.28.16-.56.24-.83-.33-.12-.64-.24-.97-.36-.12.26-.24.52-.36.79Zm-1.4-.06c-.13.26-.27.52-.39.76.31.11.6.23.9.34.11-.26.22-.52.33-.79-.28-.11-.56-.21-.85-.31Zm2.74,1.02c-.09.27-.18.55-.26.81.3.11.6.22.91.34.07-.28.14-.56.2-.83-.29-.11-.57-.21-.85-.31Zm-.79-2.15c.3.11.59.22.89.33.06-.28.13-.57.19-.84-.23-.09-.45-.17-.68-.25-.13.25-.27.51-.4.76Zm-1.27-.01c-.16.25-.31.51-.46.75.27.1.53.2.81.3.12-.26.24-.52.36-.79-.24-.09-.46-.17-.7-.26Zm2.19,1.75c.28.1.54.2.81.3.05-.29.09-.59.14-.87-.25-.09-.47-.18-.71-.26-.08.27-.16.55-.24.83Zm-.88-2.66c-.14-.05-.28-.1-.41-.14-.02,0-.05,0-.07.01-.2.23-.39.45-.58.67.22.08.43.16.64.24.13-.25.26-.51.41-.79Zm1.88,1.65c0-.3,0-.6,0-.89,0-.02-.01-.05-.02-.06-.14-.06-.28-.11-.43-.16-.07.3-.14.59-.2.87.22.08.42.16.65.24Zm-3.89,5.95c.25-.38.51-.76.75-1.12-.19-.07-.39-.15-.58-.22-.05.44-.11.89-.17,1.34Zm3.13-7.62c.03-.28.08-.56.02-.86-.24.19-.39.43-.54.66.18.07.34.13.52.19Zm-2.77,3.58c-.18-.07-.35-.13-.51-.19.07.28.15.58.23.88.1-.24.19-.47.28-.69Zm2.52.92c-.17-.06-.34-.12-.52-.19-.08.23-.16.47-.24.71.26-.18.51-.35.76-.52Zm-.67-4.84c.11-.17.23-.33.35-.51-.27.09-.47.23-.67.4.11.04.22.08.32.11Zm1.63.61c-.05-.26-.11-.5-.25-.74-.02.22-.05.42-.07.61.11.04.21.08.32.12Z"/>
      <path class="cls-1" d="m10.18,20.37C4.57,20.37,0,15.8,0,10.18S4.57,0,10.18,0s10.18,4.57,10.18,10.18-4.57,10.18-10.18,10.18ZM10.18.54C4.87.54.54,4.87.54,10.18s4.33,9.65,9.65,9.65,9.65-4.33,9.65-9.65S15.5.54,10.18.54Z"/>
      <rect class="cls-1" x="9.91" y=".24" width=".54" height="19.83" transform="translate(-4.2 10.18) rotate(-45)"/>
    </g>
  </g>
</svg>