<?xml version="1.0" encoding="UTF-8"?>
<svg id="Camada_2" data-name="Camada 2" xmlns="http://www.w3.org/2000/svg" viewBox="0 0 20.37 20.37">
  <defs>
    <style>
      .cls-1 {
        fill: #4A1F60;
      }
    </style>
  </defs>
  <g id="Camada_1-2" data-name="Camada 1">
    <g>
      <g>
        <path class="cls-1" d="m5.93,16.89s-.08-.03-.12-.05c-.38-.15-.6-.57-.43-.93.14-.32.34-.61.53-.9.08-.13.25-.13.34-.01.24.3.46.61.57.99.1.35-.11.73-.46.86-.04.02-.08.03-.12.05h-.3Zm.17-1.32h-.04c-.08.16-.18.33-.25.5-.05.11.01.24.12.31.1.07.24.06.33-.01.1-.07.14-.19.09-.3-.07-.17-.16-.32-.25-.49Z"/>
        <path class="cls-1" d="m9.21,7.27c0-.06,0-.11,0-.16,0-.62,0-1.24,0-1.86,0-.53.3-.91.78-1.01.59-.13,1.17.33,1.18.94,0,.65,0,1.29,0,1.94,0,.04,0,.09,0,.15.28,0,.55,0,.82,0,.39,0,.74.13,1.04.39.42.34.62.79.63,1.33,0,1.46,0,2.93,0,4.39,0,.58-.35,1-.9,1.11-.05,0-.1.01-.15.01-2.16,0-4.31,0-6.47,0-.16,0-.27-.09-.27-.23,0-.13.1-.23.26-.24.34-.02.58-.27.58-.62,0-.9,0-1.8,0-2.7,0-.59,0-1.17,0-1.76,0-.92.75-1.68,1.67-1.68.27,0,.53,0,.82,0Zm-2.01,1.87h5.99c.11-.72-.46-1.39-1.19-1.4-.32,0-.64,0-.96,0-.25,0-.32-.07-.32-.32,0-.74,0-1.48,0-2.21,0-.25-.19-.47-.42-.51-.25-.04-.5.1-.57.35-.02.08-.03.16-.03.24,0,.72,0,1.43,0,2.15,0,.22-.08.3-.3.3-.31,0-.62,0-.93,0-.78,0-1.33.61-1.26,1.4Zm-.2,4.89h.11c1.81,0,3.63,0,5.44,0,.38,0,.63-.24.64-.62,0-.32,0-.64,0-.97,0-.04-.02-.09-.05-.11-.31-.23-.67-.37-1.06-.41-.54-.05-1.04.08-1.51.33-.31.16-.6.37-.9.55-.54.33-1.07.36-1.61-.01-.1-.07-.23-.12-.35-.16-.17-.05-.35-.05-.48.08-.06.06-.05.2-.05.31,0,.34.04.69-.19,1.01Zm6.19-3.53h-5.99v1.7c.37-.11.71-.04,1.03.15.07.04.13.08.2.12.24.14.49.18.74.06.18-.08.34-.2.51-.29.29-.17.58-.35.88-.49.7-.31,1.42-.42,2.16-.16.16.05.31.13.47.2v-1.29Zm-6-.49h5.99v-.38h-5.99v.38Z"/>
        <path class="cls-1" d="m10.19,5.04c.09,0,.18.08.19.18,0,.09-.08.18-.17.19-.11,0-.19-.07-.19-.18,0-.1.08-.18.17-.19Z"/>
      </g>
      <path class="cls-1" d="m10.18,20.37C4.57,20.37,0,15.8,0,10.18S4.57,0,10.18,0s10.18,4.57,10.18,10.18-4.57,10.18-10.18,10.18ZM10.18.54C4.87.54.54,4.87.54,10.18s4.33,9.65,9.65,9.65,9.65-4.33,9.65-9.65S15.5.54,10.18.54Z"/>
      <rect class="cls-1" x="9.56" y=".79" width=".54" height="19.83" transform="translate(-4.69 10.08) rotate(-45)"/>
    </g>
  </g>
</svg>