<svg id="Grupo_250" data-name="Grupo 250" xmlns="http://www.w3.org/2000/svg" width="281.067" height="154.64" viewBox="0 0 281.067 154.64">
  <path id="Caminho_3917" data-name="Caminho 3917" d="M285.781,222.55a66.385,66.385,0,0,1-4.761,10.841.463.463,0,0,1-.406.24H253.892a.457.457,0,0,1-.43-.615,86.821,86.821,0,0,0,3.011-10.212.464.464,0,0,0-.452-.566h-3.176a.458.458,0,0,0-.445.352,82.341,82.341,0,0,1-3.348,10.747.464.464,0,0,1-.432.295H224.9a.461.461,0,0,1-.46-.461V222.7a.46.46,0,0,0-.46-.461h-3.091a.46.46,0,0,0-.461.461v10.472a.461.461,0,0,1-.46.461H196.249a.464.464,0,0,1-.432-.3,82.363,82.363,0,0,1-3.349-10.746.457.457,0,0,0-.444-.352h-3.177a.464.464,0,0,0-.452.566,86.946,86.946,0,0,0,3.011,10.212.456.456,0,0,1-.429.615H164.255a.466.466,0,0,1-.407-.24,66.378,66.378,0,0,1-4.761-10.841.457.457,0,0,0-.433-.312h-3.3a.464.464,0,0,0-.442.6c6.044,18.935,20.055,35.045,40.359,44.185l.035.015c28.337,10.641,57.559,3.961,77.242-15.723a70.544,70.544,0,0,0,17.407-28.477.464.464,0,0,0-.441-.6h-3.3a.457.457,0,0,0-.433.312m-98.187,35.7a67.724,67.724,0,0,1-20.718-19.888.463.463,0,0,1,.386-.718h25.684a.456.456,0,0,1,.418.274,81.308,81.308,0,0,0,10.269,17.35,78.1,78.1,0,0,0,10.927,11.484.46.46,0,0,1-.363.8,66.884,66.884,0,0,1-26.6-9.307m32.834,7.109a.459.459,0,0,1-.738.367,72.606,72.606,0,0,1-12.981-13.038,76.952,76.952,0,0,1-8.767-14.387.463.463,0,0,1,.42-.658h21.606a.46.46,0,0,1,.46.46Zm4.472-27.715h21.606a.463.463,0,0,1,.42.658,76.97,76.97,0,0,1-8.767,14.387,72.619,72.619,0,0,1-12.981,13.038.459.459,0,0,1-.738-.367V238.1a.46.46,0,0,1,.46-.46m32.374,20.606a66.889,66.889,0,0,1-26.6,9.307.46.46,0,0,1-.363-.8,78.1,78.1,0,0,0,10.927-11.484,81.28,81.28,0,0,0,10.268-17.35.457.457,0,0,1,.419-.274h25.683a.463.463,0,0,1,.386.718,67.724,67.724,0,0,1-20.718,19.888" transform="translate(-81.848 -117.436)" fill="#ffba31"/>
  <path id="Caminho_3918" data-name="Caminho 3918" d="M159.087,76.869a66.363,66.363,0,0,1,4.762-10.842.466.466,0,0,1,.406-.24h26.728a.457.457,0,0,1,.43.615A86.79,86.79,0,0,0,188.4,76.615a.464.464,0,0,0,.451.566h3.177a.457.457,0,0,0,.444-.352,82.533,82.533,0,0,1,3.35-10.746.465.465,0,0,1,.433-.295h23.713a.46.46,0,0,1,.46.46V76.721a.461.461,0,0,0,.461.46h3.091a.46.46,0,0,0,.46-.46V66.248a.46.46,0,0,1,.46-.46h23.713a.464.464,0,0,1,.432.295A82.548,82.548,0,0,1,252.4,76.829a.457.457,0,0,0,.444.352h3.177a.464.464,0,0,0,.451-.566A86.873,86.873,0,0,0,253.456,66.4a.457.457,0,0,1,.43-.615h26.777a.465.465,0,0,1,.407.24,65.86,65.86,0,0,1,4.742,10.84.456.456,0,0,0,.433.313h3.269a.464.464,0,0,0,.442-.6C283.913,57.644,269.9,41.534,249.6,32.393l-.036-.015C221.225,21.738,192,28.418,172.32,48.1a70.543,70.543,0,0,0-17.407,28.478.463.463,0,0,0,.441.6h3.3a.456.456,0,0,0,.433-.312m91.366-39.4a66.738,66.738,0,0,1,19.259,13.467,67.7,67.7,0,0,1,8.331,10.121.463.463,0,0,1-.386.718H251.916a.456.456,0,0,1-.418-.274,81.368,81.368,0,0,0-10.261-17.339A78.2,78.2,0,0,0,230.3,32.66a.461.461,0,0,1,.361-.805,66.15,66.15,0,0,1,19.8,5.616M224.44,34.063a.459.459,0,0,1,.738-.367,72.673,72.673,0,0,1,12.981,13.046,77.076,77.076,0,0,1,8.76,14.377.463.463,0,0,1-.42.658H224.9a.46.46,0,0,1-.46-.46Zm-4.472,27.713h-21.6a.463.463,0,0,1-.419-.658,77.014,77.014,0,0,1,8.76-14.377A72.7,72.7,0,0,1,219.69,33.7a.459.459,0,0,1,.738.367V61.316a.46.46,0,0,1-.46.46M187.6,41.169A66.881,66.881,0,0,1,214.2,31.862a.46.46,0,0,1,.362.8,78.131,78.131,0,0,0-10.932,11.5A81.335,81.335,0,0,0,193.372,61.5a.456.456,0,0,1-.419.274H167.263a.463.463,0,0,1-.386-.718A67.722,67.722,0,0,1,187.6,41.169" transform="translate(-81.848 -14.449)" fill="#ffba31"/>
  <path id="Caminho_3919" data-name="Caminho 3919" d="M7.4,145.376a18.81,18.81,0,0,1,13.367-5.392q7.481,0,11.014,5.3,3.31,4.954,1.733,12.508a22.681,22.681,0,0,1-6.973,12.459,19,19,0,0,1-13.215,5.246q-7.238,0-10.855-5.125-3.531-4.956-2.018-12.192a23.806,23.806,0,0,1,6.948-12.8M3.212,158.1Q1.931,164.249,4.83,168.5q3,4.373,9.044,4.372A15.765,15.765,0,0,0,24.911,168.4a19.6,19.6,0,0,0,5.859-10.613q1.342-6.412-1.389-10.662-2.941-4.517-9.16-4.519a15.589,15.589,0,0,0-11.189,4.616,20.59,20.59,0,0,0-5.82,10.88m.608,0a19.974,19.974,0,0,1,5.6-10.516,14.9,14.9,0,0,1,10.681-4.4q5.95,0,8.737,4.324,2.645,4.08,1.351,10.273a18.716,18.716,0,0,1-5.651,10.2A14.978,14.978,0,0,1,14,172.287q-5.757,0-8.625-4.177-2.79-4.082-1.551-10.007m3.972,8.306q2,3.425,6.693,3.426a11.189,11.189,0,0,0,8.324-3.572,16.948,16.948,0,0,0,4.3-8.5q1.064-5.1-.73-8.477-1.966-3.617-6.774-3.618a11.13,11.13,0,0,0-8.519,3.692,18.6,18.6,0,0,0-4.213,8.888q-1.026,4.908.919,8.161" transform="translate(0 -73.971)" fill="#461c58"/>
  <path id="Caminho_3920" data-name="Caminho 3920" d="M65.431,169.735h2.176a.46.46,0,0,0,.4-.232l12.871-22.516a.46.46,0,0,0-.4-.689.46.46,0,0,1-.45-.554l.32-1.532a.46.46,0,0,1,.45-.366h3.809a.461.461,0,0,1,.4.69L69.2,171.934a.461.461,0,0,1-.4.23H65.116a.46.46,0,0,1-.451-.555l.316-1.508a.46.46,0,0,1,.45-.366m-1.085,3.4-.315,1.509a.46.46,0,0,0,.45.554H74.5a.461.461,0,0,0,.451-.366l.315-1.509a.46.46,0,0,0-.451-.554H64.8a.46.46,0,0,0-.45.366m23.406-3.4h.51a.46.46,0,0,0,.453-.54l-.606-3.427a.461.461,0,0,0-.453-.38H77.212a.46.46,0,0,0-.4.235l-1.922,3.426a.461.461,0,0,0,.4.686h.154a.46.46,0,0,1,.45.555L75.58,171.8a.461.461,0,0,1-.451.366H70.5a.461.461,0,0,1-.4-.69l4.837-8.381a.46.46,0,0,1,.4-.23H90.24a.46.46,0,0,1,.455.39l1.289,8.381a.46.46,0,0,1-.455.53H87.436a.46.46,0,0,1-.451-.555L87.3,170.1a.46.46,0,0,1,.45-.366M75.81,161.565,85.9,144.076a.46.46,0,0,1,.4-.23h.991a.46.46,0,0,1,.455.39l2.714,17.488a.46.46,0,0,1-.455.531h-13.8a.461.461,0,0,1-.4-.69m19.9,7.793-5.161-28.17a.46.46,0,0,0-.453-.377H81.432a.46.46,0,0,0-.451.366l-.315,1.508a.46.46,0,0,0,.45.554h6.738a.46.46,0,0,1,.455.39q2.139,13.97,4.329,28.145a.461.461,0,0,0,.455.391h4.355a.46.46,0,0,0,.45-.366l.316-1.508a.46.46,0,0,0-.45-.555h-1.6a.46.46,0,0,1-.453-.377m-8.564-9.993-.993-9.092a.46.46,0,0,0-.863-.168L80.4,159.2a.46.46,0,0,0,.405.679H86.69a.46.46,0,0,0,.458-.51m-.481,13.772-.315,1.509a.461.461,0,0,0,.451.555H96.815a.461.461,0,0,0,.451-.366l.315-1.509a.461.461,0,0,0-.451-.554H87.117a.46.46,0,0,0-.45.366" transform="translate(-33.83 -74.407)" fill="#461c58"/>
  <path id="Caminho_3921" data-name="Caminho 3921" d="M146.416,142.684l.315-1.507a.461.461,0,0,1,.451-.366h13.9a.46.46,0,0,1,.45.555l-.315,1.507a.461.461,0,0,1-.451.366h-13.9a.46.46,0,0,1-.45-.555m-6.043,28.926.315-1.508a.46.46,0,0,1,.45-.367h3.526a.459.459,0,0,0,.45-.366l4.7-22.516a.46.46,0,0,0-.451-.554h-3.141a.46.46,0,0,1-.45-.555l.32-1.532a.46.46,0,0,1,.45-.367h6.175a.461.461,0,0,1,.451.555l-5.724,27.4a.46.46,0,0,1-.45.366h-6.175a.461.461,0,0,1-.451-.555m14.481,1.716-.315,1.509a.46.46,0,0,1-.45.366h-13.9a.46.46,0,0,1-.45-.554l.315-1.509a.461.461,0,0,1,.451-.366h13.9a.461.461,0,0,1,.451.554m.469-18.7,9.116-7.508a.46.46,0,0,0-.293-.815h-.65a.46.46,0,0,1-.451-.555l.322-1.533a.46.46,0,0,1,.45-.366h6.773a.46.46,0,0,1,.294.815l-19.731,16.32a.46.46,0,0,1-.744-.448l3.411-16.32a.46.46,0,0,1,.45-.367h6.176a.46.46,0,0,1,.45.555l-.321,1.532a.461.461,0,0,1-.45.366H156.6a.46.46,0,0,0-.45.366l-1.568,7.508a.46.46,0,0,0,.743.45m4.93,17.542h6.871a.461.461,0,0,0,.381-.719l-9.828-14.5a.461.461,0,0,0-.674-.1l-6.914,5.72a.462.462,0,0,0-.157.26L148.1,171.61a.461.461,0,0,0,.451.555h6.176a.461.461,0,0,0,.451-.366l.315-1.508a.461.461,0,0,0-.45-.555H151.9a.46.46,0,0,1-.45-.554l1.174-5.624a.461.461,0,0,1,.161-.264l3.194-2.589a.461.461,0,0,1,.673.1l5.451,8.213a.46.46,0,0,1-.384.714h-1.147a.46.46,0,0,0-.45.367l-.315,1.508a.46.46,0,0,0,.451.555m17.511-28.319h-4.879a.462.462,0,0,0-.293.106l-14.348,11.87a.46.46,0,0,0-.088.612l10.5,15.529a.459.459,0,0,0,.381.2h5.137a.46.46,0,0,0,.45-.366l.315-1.508a.461.461,0,0,0-.45-.555h-3.51a.461.461,0,0,1-.384-.206l-8.66-13.068a.461.461,0,0,1,.1-.613l11.772-9.448a.464.464,0,0,1,.288-.1h3.35a.461.461,0,0,0,.45-.366l.321-1.532a.461.461,0,0,0-.45-.555m-14.079-1.162.315-1.507a.46.46,0,0,1,.451-.366H178.4a.46.46,0,0,1,.451.555l-.315,1.507a.46.46,0,0,1-.45.366H164.135a.46.46,0,0,1-.45-.555m10.623,30.642-.315,1.509a.46.46,0,0,1-.45.366H159.62a.46.46,0,0,1-.451-.554l.315-1.509a.46.46,0,0,1,.45-.366h13.923a.46.46,0,0,1,.45.554" transform="translate(-73.836 -74.407)" fill="#461c58"/>
  <path id="Caminho_3922" data-name="Caminho 3922" d="M249.969,161.477a8.769,8.769,0,0,1-.046,3.472,12.432,12.432,0,0,1-2.066,4.543q-4.034,5.707-13.264,5.707H218.061a.46.46,0,0,1-.45-.555l.315-1.509a.461.461,0,0,1,.451-.366h18.909a9.443,9.443,0,0,0,5.928-2.331,9.778,9.778,0,0,0,3.709-5.66,6.037,6.037,0,0,0-1.636-5.657,6.889,6.889,0,0,0-2.116-1.592.455.455,0,0,1,.01-.827,9.466,9.466,0,0,0,3.03-2.124,8.58,8.58,0,0,0,2.32-4.25,5.724,5.724,0,0,0-1.042-5,5.462,5.462,0,0,0-4.567-2.089H224.739a.46.46,0,0,1-.45-.554l.315-1.508a.46.46,0,0,1,.451-.366h16.529q7.555,0,9.389,4.469a7.722,7.722,0,0,1,.429,4.687,9.7,9.7,0,0,1-.753,2.21,11.028,11.028,0,0,1-3.446,4.184.454.454,0,0,0,.017.735,6.627,6.627,0,0,1,2.749,4.383M218.7,172.163h5.956a.461.461,0,0,0,.451-.366l5.725-27.4a.46.46,0,0,0-.45-.555h-5.958a.46.46,0,0,0-.451.366l-.32,1.533a.46.46,0,0,0,.45.554h3.142a.461.461,0,0,1,.451.555l-4.7,22.515a.461.461,0,0,1-.451.366h-3.527a.46.46,0,0,0-.45.366l-.316,1.508a.46.46,0,0,0,.451.555m12.777-27.952-2.513,12.024a.46.46,0,0,0,.45.555H240.09a7.662,7.662,0,0,0,4.986-1.895,7.926,7.926,0,0,0,2.849-4.566,5.3,5.3,0,0,0-.936-4.59,5.043,5.043,0,0,0-4.194-1.894H231.924a.461.461,0,0,0-.451.366m-2.832,13.552-2.892,13.846a.46.46,0,0,0,.45.554h11.213a8.753,8.753,0,0,0,5.48-2.161,9.065,9.065,0,0,0,3.422-5.223A5.758,5.758,0,0,0,244.2,159a6.346,6.346,0,0,0-4.231-1.6H229.092a.46.46,0,0,0-.45.366m5.315-10.784a.46.46,0,0,1,.45-.366h4.555a28.85,28.85,0,0,1,3.687.146,2.874,2.874,0,0,1,2.282,1.505,3.578,3.578,0,0,1,.2,2.162,5.242,5.242,0,0,1-.463,1.288,4.532,4.532,0,0,1-2.921,2.355,15.107,15.107,0,0,1-3.859.34H232.97a.46.46,0,0,1-.45-.555Zm-2.842,13.6a.46.46,0,0,1,.45-.366h5.575a13.747,13.747,0,0,1,4.34.511,2.963,2.963,0,0,1,2.035,2.574,4.447,4.447,0,0,1-.043,1.6,5.45,5.45,0,0,1-1.035,2.162,5.148,5.148,0,0,1-2.882,1.943,13.805,13.805,0,0,1-3.749.389h-5.966a.46.46,0,0,1-.45-.555Z" transform="translate(-114.986 -74.407)" fill="#461c58"/>
  <path id="Caminho_3923" data-name="Caminho 3923" d="M294.424,140.809h27.937a.46.46,0,0,1,.45.554l-1.843,8.819a.459.459,0,0,1-.45.366h-1.511a.46.46,0,0,1-.45-.555l1.3-6.2a.46.46,0,0,0-.451-.554H294.11a.461.461,0,0,1-.451-.555l.315-1.508a.46.46,0,0,1,.45-.366m.22,30.988,5.724-27.4a.46.46,0,0,0-.451-.555h-6.127a.46.46,0,0,0-.45.366l-.321,1.532a.46.46,0,0,0,.45.555h3.142a.461.461,0,0,1,.45.555l-4.7,22.516a.461.461,0,0,1-.451.366h-3.527a.459.459,0,0,0-.45.366l-.315,1.508a.46.46,0,0,0,.45.555h6.128a.46.46,0,0,0,.45-.366m23.011-5.757-1.835,8.794a.461.461,0,0,1-.451.366H287.432a.46.46,0,0,1-.45-.554l.315-1.508a.46.46,0,0,1,.451-.367h25.676a.46.46,0,0,0,.45-.366l1.369-6.554a.459.459,0,0,1,.45-.366H317.2a.46.46,0,0,1,.451.555m-1.569-18.872-.59,2.827a.46.46,0,0,0,.45.555h1.513a.46.46,0,0,0,.451-.366l1.209-5.783a.46.46,0,0,0-.45-.555h-17.2a.46.46,0,0,0-.451.366l-2.614,12.51a.46.46,0,0,0,.45.555h16.134a.46.46,0,0,0,.451-.366l.38-1.824a.461.461,0,0,0-.451-.554H302.315a.46.46,0,0,1-.45-.555l1.463-7a.461.461,0,0,1,.451-.366h11.858a.46.46,0,0,1,.45.554m-18,11.058-2.8,13.383a.46.46,0,0,0,.45.555h17.2a.46.46,0,0,0,.451-.366l1.2-5.757a.46.46,0,0,0-.45-.555h-1.513a.459.459,0,0,0-.45.366l-.664,3.179a.46.46,0,0,1-.45.366H299.21a.46.46,0,0,1-.451-.554l1.7-8.139a.46.46,0,0,1,.45-.366h13.437a.461.461,0,0,0,.451-.366l.324-1.557a.46.46,0,0,0-.45-.554H298.537a.46.46,0,0,0-.45.366" transform="translate(-151.643 -74.407)" fill="#461c58"/>
  <path id="Caminho_3924" data-name="Caminho 3924" d="M386.574,169.735h3.83a.46.46,0,0,1,.45.554l-.315,1.509a.461.461,0,0,1-.451.366H384.4a.466.466,0,0,1-.425-.284q-2.336-5.5-3.012-6.808a27.161,27.161,0,0,0-5.005-6.847h.7a13.056,13.056,0,0,0,6.716-1.8,8.314,8.314,0,0,0,4.245-5.56q1.127-5.392-3.221-7.019a10.977,10.977,0,0,0-3.109-.582,8.279,8.279,0,0,0-1.452-.025H360.5a.461.461,0,0,1-.451-.555l.316-1.508a.46.46,0,0,1,.45-.366h19.251a19.088,19.088,0,0,1,6.8.923,6.107,6.107,0,0,1,3.349,3.5,9.124,9.124,0,0,1,.38,5.392,11.553,11.553,0,0,1-3.887,6.508,13.523,13.523,0,0,1-5.031,2.651.455.455,0,0,0-.215.728,40.22,40.22,0,0,1,5.114,9.226m-32.12,2.429h6.2a.461.461,0,0,0,.451-.366l5.726-27.4a.461.461,0,0,0-.451-.555h-6.2a.46.46,0,0,0-.451.366l-.32,1.532a.46.46,0,0,0,.45.555H363a.46.46,0,0,1,.45.554l-4.7,22.516a.461.461,0,0,1-.451.366h-3.527a.46.46,0,0,0-.45.366L354,171.609a.46.46,0,0,0,.451.555m14.03,1.162-.315,1.509a.46.46,0,0,1-.45.366h-13.9a.461.461,0,0,1-.451-.555l.315-1.509a.46.46,0,0,1,.451-.366h13.9a.46.46,0,0,1,.45.554m8.3-15.684a12.231,12.231,0,0,0,6.245-1.651,7.6,7.6,0,0,0,4.011-5.125q.81-3.886-1.475-5.611-1.916-1.408-6.166-1.408H367.9a.461.461,0,0,0-.451.366l-2.69,12.875a.46.46,0,0,0,.45.555Zm-.623,14.522H382.7a.46.46,0,0,0,.424-.639q-1.988-4.7-2.721-6.087a26.825,26.825,0,0,0-5.257-7.086.468.468,0,0,0-.322-.127H364.9a.46.46,0,0,0-.45.366l-2.721,13.019a.461.461,0,0,0,.451.555h6.177a.461.461,0,0,0,.451-.366l.315-1.509a.46.46,0,0,0-.45-.554h-3.142a.46.46,0,0,1-.45-.555l1.675-8.017a.46.46,0,0,1,.45-.366h3.583a10.411,10.411,0,0,1,2.157.146,3.977,3.977,0,0,1,1.475.728q1.308.949,3.66,6.314l.462,1.112a.46.46,0,0,1-.425.637H376.48a.46.46,0,0,0-.45.366l-.316,1.508a.46.46,0,0,0,.45.555m-6.4-25.426a.46.46,0,0,1,.45-.366h8.879q3.28,0,4.36,1.214a3.261,3.261,0,0,1,.7,3.036,5.274,5.274,0,0,1-3.539,3.91,13.613,13.613,0,0,1-4.39.558h-7.642a.46.46,0,0,1-.45-.555Zm20.456,26.587-.315,1.509a.46.46,0,0,1-.45.366H375.532a.461.461,0,0,1-.451-.554l.314-1.509a.46.46,0,0,1,.45-.366h13.924a.46.46,0,0,1,.451.554" transform="translate(-186.723 -74.407)" fill="#461c58"/>
  <path id="Caminho_3925" data-name="Caminho 3925" d="M469.285,169.735h3.83a.46.46,0,0,1,.451.554l-.315,1.509a.46.46,0,0,1-.45.366h-5.684a.466.466,0,0,1-.425-.284q-2.335-5.5-3.014-6.808a27.075,27.075,0,0,0-5-6.847h.705a13.052,13.052,0,0,0,6.715-1.8,8.3,8.3,0,0,0,4.245-5.56q1.127-5.392-3.221-7.019a10.964,10.964,0,0,0-3.106-.582,8.3,8.3,0,0,0-1.454-.025H443.209a.461.461,0,0,1-.451-.555l.315-1.507a.46.46,0,0,1,.45-.366h19.249a19.069,19.069,0,0,1,6.8.923,6.1,6.1,0,0,1,3.35,3.5,9.127,9.127,0,0,1,.38,5.392,11.562,11.562,0,0,1-3.888,6.508,13.51,13.51,0,0,1-5.032,2.651.455.455,0,0,0-.215.728,40.166,40.166,0,0,1,5.114,9.226m-32.12,2.429h6.2a.46.46,0,0,0,.45-.366l5.726-27.4a.46.46,0,0,0-.451-.555h-6.2a.46.46,0,0,0-.45.366l-.321,1.532a.46.46,0,0,0,.45.555h3.14a.46.46,0,0,1,.451.554l-4.7,22.516a.46.46,0,0,1-.451.366H437.48a.46.46,0,0,0-.45.366l-.315,1.508a.46.46,0,0,0,.451.555m14.031,1.162-.315,1.509a.46.46,0,0,1-.45.366h-13.9a.46.46,0,0,1-.451-.554l.315-1.509a.46.46,0,0,1,.45-.366h13.9a.46.46,0,0,1,.45.554m8.3-15.684a12.24,12.24,0,0,0,6.247-1.651,7.612,7.612,0,0,0,4.009-5.125q.812-3.886-1.476-5.611-1.917-1.408-6.164-1.408h-11.5a.461.461,0,0,0-.451.366l-2.69,12.875a.46.46,0,0,0,.45.555Zm-.623,14.522h6.537a.46.46,0,0,0,.424-.639q-1.985-4.7-2.721-6.088a26.71,26.71,0,0,0-5.255-7.086.468.468,0,0,0-.321-.127h-9.931a.46.46,0,0,0-.45.366l-2.721,13.02a.46.46,0,0,0,.45.554h6.176a.46.46,0,0,0,.45-.366l.315-1.508a.46.46,0,0,0-.451-.554h-3.141a.46.46,0,0,1-.45-.555l1.675-8.017a.46.46,0,0,1,.451-.366H453.5a10.384,10.384,0,0,1,2.155.146,3.983,3.983,0,0,1,1.475.728q1.307.949,3.66,6.314l.461,1.112a.461.461,0,0,1-.425.637h-1.633a.46.46,0,0,0-.45.366l-.315,1.508a.46.46,0,0,0,.451.554m-6.4-25.426a.46.46,0,0,1,.45-.366h8.88q3.276,0,4.36,1.214a3.259,3.259,0,0,1,.7,3.036,5.27,5.27,0,0,1-3.539,3.91,13.61,13.61,0,0,1-4.391.558H451.3a.46.46,0,0,1-.45-.555Zm20.456,26.587-.314,1.509a.46.46,0,0,1-.45.366H458.244a.46.46,0,0,1-.45-.554l.314-1.509a.46.46,0,0,1,.451-.366h13.923a.46.46,0,0,1,.451.554" transform="translate(-230.43 -74.407)" fill="#461c58"/>
  <path id="Caminho_3926" data-name="Caminho 3926" d="M522.424,142.684l.315-1.508a.46.46,0,0,1,.45-.366h13.9a.46.46,0,0,1,.45.555l-.315,1.508a.46.46,0,0,1-.451.366h-13.9a.461.461,0,0,1-.451-.555M532.6,160.635l-6.455-14.069a.461.461,0,0,0-.419-.268h-3.486a.46.46,0,0,1-.451-.555l.321-1.531a.46.46,0,0,1,.45-.366h5.694a.46.46,0,0,1,.419.27l7.172,15.831-.069.1.106.073L533.439,171.8a.46.46,0,0,1-.45.366h-6.173a.46.46,0,0,1-.451-.554l.314-1.508a.461.461,0,0,1,.451-.366h3.284a.46.46,0,0,0,.45-.366l1.765-8.446a.459.459,0,0,0-.032-.286m3.86-16.79h-6.468a.46.46,0,0,0-.419.65l6.457,14.269a.461.461,0,0,0,.765.115l12.576-14.269a.46.46,0,0,0-.346-.764h-7.23a.46.46,0,0,0-.45.366l-.32,1.531a.46.46,0,0,0,.45.555H543.7a.46.46,0,0,1,.346.764l-6.22,7.079a.46.46,0,0,1-.765-.113l-3.22-7.079a.46.46,0,0,1,.419-.651h1.874a.46.46,0,0,0,.45-.366l.32-1.531a.46.46,0,0,0-.45-.555m4.389,29.479-.315,1.508a.46.46,0,0,1-.45.366h-13.9a.46.46,0,0,1-.451-.554l.315-1.509a.46.46,0,0,1,.45-.366h13.9a.461.461,0,0,1,.451.554m15.3-28.925-.321,1.531a.46.46,0,0,1-.45.366h-3.138a.46.46,0,0,0-.341.152l-12.86,14.231a.465.465,0,0,0-.109.215l-1.732,8.284a.46.46,0,0,0,.45.555h3.387a.46.46,0,0,1,.45.555l-.316,1.508a.459.459,0,0,1-.45.366h-6.177a.46.46,0,0,1-.45-.554l2.392-11.445a.453.453,0,0,1,.105-.21L550.633,144a.458.458,0,0,1,.345-.156h4.715a.46.46,0,0,1,.45.555m-14.483-1.717.315-1.508a.461.461,0,0,1,.451-.366h13.9a.46.46,0,0,1,.45.555l-.315,1.508a.462.462,0,0,1-.451.366h-13.9a.46.46,0,0,1-.451-.555" transform="translate(-275.719 -74.407)" fill="#461c58"/>
  <path id="Caminho_3927" data-name="Caminho 3927" d="M144.109,81.555l3.9,4.533-.816,1.456-3.635-.572,2.412,2.756-.806,1.438-5.921-.92-.377.674-1.393-.781,1.813-3.235,1.393.78-.353.629.984.162a14.5,14.5,0,0,1,1.651.488l-2.948-3.128.72-1.285,4.232.836c-.426-.357-.868-.77-1.314-1.2l-.617-.712-.363.647-1.393-.78,1.813-3.235,1.394.78Z" transform="translate(-72.642 -42.332)" fill="#461c58"/>
  <path id="Caminho_3928" data-name="Caminho 3928" d="M160.584,73.862c-1.408,1.893-3.484,2.4-5.426.96-1.894-1.409-2.042-3.574-.635-5.467s3.494-2.384,5.412-.957c1.943,1.444,2.063,3.563.649,5.465m-4.663-3.468a2.036,2.036,0,0,0,3.266,2.429,1.889,1.889,0,0,0-.469-2.788,1.859,1.859,0,0,0-2.8.36" transform="translate(-81.158 -35.705)" fill="#461c58"/>
  <path id="Caminho_3929" data-name="Caminho 3929" d="M164.661,58.158l-.589.634L162.9,57.705l2.988-3.213a2.524,2.524,0,0,1,3.725-.362,2.122,2.122,0,0,1,.592,2.464l1.258.129.639-.686,1.176,1.095L171.3,59.258l-.762-.708-1.553-.221-.54.58.6.561.593-.547,1.056.982-2.518,2.708L167,61.52l.589-.633Zm1.4-1.464,1.267,1.178,1.024-1.1a.869.869,0,0,0-1.281-1.163Z" transform="translate(-86.081 -28.255)" fill="#461c58"/>
  <path id="Caminho_3930" data-name="Caminho 3930" d="M177.24,47l-1.066-1.216,2.8-2.457,1.065,1.216-.643.563,2.545,2.906,1.317-1.154-.691-.914,1.34-1.174,1.894,2.161-4.843,4.242-1.059-1.209.581-.509-2.627-3Z" transform="translate(-93.095 -22.897)" fill="#461c58"/>
  <path id="Caminho_3931" data-name="Caminho 3931" d="M190,35.255l-.922-1.3,3.163-2.236c2.078-1.468,3.993-.917,5.135.7A3.473,3.473,0,0,1,196.4,37.6l-3.163,2.236-.928-1.312.639-.451L190.638,34.8Zm4.544,1.556.866-.612a1.743,1.743,0,0,0,.305-2.638,1.66,1.66,0,0,0-2.5-.465l-.866.612Z" transform="translate(-99.913 -16.308)" fill="#461c58"/>
  <path id="Caminho_3932" data-name="Caminho 3932" d="M215.853,23.456l.746,1.423-3.329,1.746-.746-1.423.7-.368-1.861-3.548-.7.369-.742-1.414,5.619-2.946,1.124,2.143-1.359.713-.381-.614-1.715.9.584,1.112,1.651-.866.771,1.468-1.651.866.459.876Z" transform="translate(-110.927 -9.138)" fill="#461c58"/>
  <path id="Caminho_3933" data-name="Caminho 3933" d="M232.063,19.129l-.548-1.345.568-.3-.447-.5-2.366.964.031.678.649-.209.548,1.345-3.348,1.365-.606-1.489.744-.3.148-4.388-.754.307-.6-1.478,3.53-1.438,4.432,4.245.735-.3.607,1.488Zm-1.592-3.389-1.286-1.355.046,1.861Z" transform="translate(-119.466 -6.522)" fill="#461c58"/>
  <path id="Caminho_3934" data-name="Caminho 3934" d="M249.33,4.246l2.869-.761.415,1.564-.817.216,1.022,3.855.817-.216.412,1.553-3.6.954-.412-1.554.826-.219-.719-2.709-1.22,2.594-.2.053-2.3-1.649.716,2.7.837-.221.412,1.553-3.6.954-.412-1.554.817-.216-1.023-3.855-.817.216-.415-1.563,2.869-.761,2.343,1.8Z" transform="translate(-128.379 -1.842)" fill="#461c58"/>
  <path id="Caminho_3935" data-name="Caminho 3935" d="M271.283,8.868c-2.337.32-4.154-.8-4.483-3.2-.32-2.337,1.122-3.959,3.459-4.279s4.147.826,4.471,3.193c.328,2.4-1.1,3.967-3.447,4.288M270.5,3.112a1.916,1.916,0,0,0-1.675,2.277,1.918,1.918,0,0,0,2.226,1.754,1.887,1.887,0,0,0,1.663-2.286A1.859,1.859,0,0,0,270.5,3.112" transform="translate(-140.96 -0.705)" fill="#461c58"/>
  <path id="Caminho_3936" data-name="Caminho 3936" d="M290.141,1.678l-.035-1.6L293.822,0l.035,1.6-.834.019.054,2.44a3.4,3.4,0,0,1-6.8.13l-.054-2.42-.834.018-.035-1.6L289.086.1l.035,1.6-.875.019.054,2.42c.025,1.132.581,1.6,1.426,1.586.823-.018,1.359-.525,1.334-1.626l-.054-2.441Z" transform="translate(-150.79)" fill="#461c58"/>
  <path id="Caminho_3937" data-name="Caminho 3937" d="M311.232,3.14,309.477,3l.037-.834a3.226,3.226,0,0,0-.9-.189c-.38-.031-1.006.041-1.046.524s.442.656,1.155.788c1.395.259,2.887.837,2.747,2.531-.134,1.622-1.743,2.2-3.365,2.079a4.274,4.274,0,0,1-2.926-1.244l.148-1.8L307.079,5l-.037.834a3.5,3.5,0,0,0,1.213.327c.677.056,1.159-.142,1.192-.553.029-.349-.377-.568-1.161-.715-1.446-.253-2.9-.787-2.755-2.563.13-1.581,1.829-2.124,3.215-2.009A4.07,4.07,0,0,1,311.375,1.4c-.047.575-.1,1.161-.143,1.735" transform="translate(-161.262 -0.162)" fill="#461c58"/>
  <path id="Caminho_3938" data-name="Caminho 3938" d="M328.718,10.836l.31-1.418.637.075-.087-.662-2.5-.545-.357.576.653.2-.31,1.418L323.536,9.7l.342-1.57.785.172,2.606-3.532-.795-.174.34-1.559,3.723.813,1.25,6.008.775.169-.343,1.569Zm.607-3.694L329.031,5.3l-1.015,1.56Z" transform="translate(-170.964 -1.607)" fill="#461c58"/>
  <path id="Caminho_3939" data-name="Caminho 3939" d="M344.9,16.928c.213.374.873.743,1.132.383.207-.3-.351-.712-.788-.606l-.229-.291.7-.821a3.513,3.513,0,0,1-1.729-4.472,3.723,3.723,0,0,1,4.981-2.354,3.6,3.6,0,0,1,2.1,1.689l-.65,1.977-1.644-.541.311-1.112a2.122,2.122,0,0,0-.669-.34,1.889,1.889,0,0,0-2.513,1.311,1.89,1.89,0,0,0,1.226,2.539,2.4,2.4,0,0,0,1.857-.138l.717,1.646a3.924,3.924,0,0,1-2.787.266l-.269.357a1.029,1.029,0,0,1,.646,1.665c-.826,1.128-2.832.435-3.27-.707Z" transform="translate(-181.653 -4.501)" fill="#461c58"/>
  <path id="Caminho_3940" data-name="Caminho 3940" d="M361.3,21.7l.615-1.316.6.214.061-.665-2.314-1.081-.476.483.594.334-.615,1.315-3.275-1.53.68-1.455.728.34,3.319-2.87-.737-.345.676-1.446,3.452,1.613-.105,6.135.719.336-.68,1.455Zm1.405-3.47.121-1.865-1.334,1.3Z" transform="translate(-188.379 -7.229)" fill="#461c58"/>
  <path id="Caminho_3941" data-name="Caminho 3941" d="M377.442,21.706l.785-1.39,3.264,1.844-.785,1.39-.744-.421-1.97,3.488.744.42-.79,1.4-3.264-1.844.79-1.4.735.416,1.971-3.488Zm4.943-1.17-1.624.655-1.417-.8.041-.072,1.294-.889,1.767,1Z" transform="translate(-197.991 -10.268)" fill="#461c58"/>
  <path id="Caminho_3942" data-name="Caminho 3942" d="M391.021,31.163l.941-1.29,3.611,2.634c1.173.855,1.76,2.061.946,3.176a1.392,1.392,0,0,1-1.468.65,1.909,1.909,0,0,1-.189,1.953c-.959,1.315-2.442.831-3.521.057L387.714,35.7l.947-1.3.632.462,2.361-3.236Zm-.145,4.916,1.39,1.014a.728.728,0,1,0,.856-1.173l-1.39-1.013Zm1.693-2.321,1.306.953a.607.607,0,0,0,.887-.08.6.6,0,0,0-.156-.853l-1.339-.977Z" transform="translate(-204.877 -15.786)" fill="#461c58"/>
  <path id="Caminho_3943" data-name="Caminho 3943" d="M405.716,50.637c-1.741-1.593-2.039-3.708-.4-5.494,1.592-1.741,3.761-1.669,5.5-.077s2.018,3.716.4,5.48c-1.634,1.786-3.753,1.69-5.5.091m3.922-4.287a2.036,2.036,0,0,0-2.747,3,1.888,1.888,0,0,0,2.821-.183,1.859,1.859,0,0,0-.074-2.819" transform="translate(-213.607 -23.173)" fill="#461c58"/>
  <path id="Caminho_3944" data-name="Caminho 3944" d="M427.429,62.979l-5.614,2.054-1.076-1.275,1.813-3.2-3.428,1.289-1.064-1.259L421,55.366l-.5-.59,1.22-1.029,2.392,2.834L422.9,57.61l-.465-.551-.5.864A14.543,14.543,0,0,1,420.9,59.3l3.964-1.66.95,1.126-2.269,3.668c.483-.274,1.025-.542,1.582-.809l.883-.327-.479-.567,1.22-1.03,2.392,2.834-1.219,1.029Z" transform="translate(-220.913 -28.401)" fill="#461c58"/>
  <path id="Caminho_3945" data-name="Caminho 3945" d="M435.089,76.035l1.356-.881,2.033,3.126-1.356.882-.466-.717-3.238,2.107.954,1.468,1-.554.972,1.493-2.409,1.567-3.511-5.4,1.347-.877.422.648,3.342-2.173Z" transform="translate(-227.449 -39.713)" fill="#461c58"/>
  <path id="Caminho_3946" data-name="Caminho 3946" d="M446.241,96.3l-.82-1.559.724-.415a3.247,3.247,0,0,0-.326-.864c-.177-.337-.575-.827-1-.6s-.317.725-.045,1.4c.529,1.316.842,2.886-.662,3.676-1.441.757-2.794-.288-3.56-1.724a4.273,4.273,0,0,1-.521-3.136l1.6-.839.82,1.559-.724.415a3.51,3.51,0,0,0,.375,1.2c.316.6.742.9,1.107.71.31-.163.277-.623-.019-1.363-.562-1.357-.893-2.871.685-3.7,1.4-.738,2.772.4,3.42,1.635a4.071,4.071,0,0,1,.495,2.8l-1.541.81" transform="translate(-232.466 -47.992)" fill="#461c58"/>
</svg>
